ISO-10303-21;
HEADER;
FILE_DESCRIPTION(('FreeCAD Model'),'2;1');
FILE_NAME('Open CASCADE Shape Model','2025-10-09T23:42:21',(''),(''),
  'Open CASCADE STEP processor 7.8','FreeCAD','Unknown');
FILE_SCHEMA((
'AP242_MANAGED_MODEL_BASED_3D_ENGINEERING_MIM_LF. {1 0 10303 442 1 1 4 
}'));
ENDSEC;
DATA;
#1 = APPLICATION_PROTOCOL_DEFINITION('international standard',
  'ap242_managed_model_based_3d_engineering',2013,#2);
#2 = APPLICATION_CONTEXT('Managed model based 3d engineering');
#3 = SHAPE_DEFINITION_REPRESENTATION(#4,#10);
#4 = PRODUCT_DEFINITION_SHAPE('','',#5);
#5 = PRODUCT_DEFINITION('design','',#6,#9);
#6 = PRODUCT_DEFINITION_FORMATION('','',#7);
#7 = PRODUCT('Fillet001','Fillet001','',(#8));
#8 = PRODUCT_CONTEXT('',#2,'mechanical');
#9 = PRODUCT_DEFINITION_CONTEXT('part definition',#2,'design');
#10 = ADVANCED_BREP_SHAPE_REPRESENTATION('',(#11,#15),#755);
#11 = AXIS2_PLACEMENT_3D('',#12,#13,#14);
#12 = CARTESIAN_POINT('',(0.,0.,0.));
#13 = DIRECTION('',(0.,0.,1.));
#14 = DIRECTION('',(1.,0.,-0.));
#15 = MANIFOLD_SOLID_BREP('',#16);
#16 = CLOSED_SHELL('',(#17,#57,#94,#131,#190,#219,#306,#330,#361,#442,
    #466,#495,#524,#541,#563,#583,#613,#684));
#17 = ADVANCED_FACE('',(#18),#52,.F.);
#18 = FACE_BOUND('',#19,.F.);
#19 = EDGE_LOOP('',(#20,#30,#38,#46));
#20 = ORIENTED_EDGE('',*,*,#21,.F.);
#21 = EDGE_CURVE('',#22,#24,#26,.T.);
#22 = VERTEX_POINT('',#23);
#23 = CARTESIAN_POINT('',(-5.551115123126E-17,0.25,0.));
#24 = VERTEX_POINT('',#25);
#25 = CARTESIAN_POINT('',(-1.110223024625E-16,0.25,0.1));
#26 = LINE('',#27,#28);
#27 = CARTESIAN_POINT('',(-5.551115123126E-17,0.25,0.));
#28 = VECTOR('',#29,1.);
#29 = DIRECTION('',(0.,0.,1.));
#30 = ORIENTED_EDGE('',*,*,#31,.T.);
#31 = EDGE_CURVE('',#22,#32,#34,.T.);
#32 = VERTEX_POINT('',#33);
#33 = CARTESIAN_POINT('',(-5.551115123126E-17,0.95,0.));
#34 = LINE('',#35,#36);
#35 = CARTESIAN_POINT('',(0.,0.,0.));
#36 = VECTOR('',#37,1.);
#37 = DIRECTION('',(0.,1.,0.));
#38 = ORIENTED_EDGE('',*,*,#39,.T.);
#39 = EDGE_CURVE('',#32,#40,#42,.T.);
#40 = VERTEX_POINT('',#41);
#41 = CARTESIAN_POINT('',(-1.110223024625E-16,0.95,0.1));
#42 = LINE('',#43,#44);
#43 = CARTESIAN_POINT('',(-5.551115123126E-17,0.95,0.));
#44 = VECTOR('',#45,1.);
#45 = DIRECTION('',(0.,0.,1.));
#46 = ORIENTED_EDGE('',*,*,#47,.F.);
#47 = EDGE_CURVE('',#24,#40,#48,.T.);
#48 = LINE('',#49,#50);
#49 = CARTESIAN_POINT('',(-1.110223024625E-16,0.25,0.1));
#50 = VECTOR('',#51,1.);
#51 = DIRECTION('',(0.,1.,0.));
#52 = PLANE('',#53);
#53 = AXIS2_PLACEMENT_3D('',#54,#55,#56);
#54 = CARTESIAN_POINT('',(0.,0.,0.));
#55 = DIRECTION('',(1.,0.,0.));
#56 = DIRECTION('',(0.,0.,1.));
#57 = ADVANCED_FACE('',(#58),#89,.T.);
#58 = FACE_BOUND('',#59,.T.);
#59 = EDGE_LOOP('',(#60,#61,#70,#78));
#60 = ORIENTED_EDGE('',*,*,#21,.F.);
#61 = ORIENTED_EDGE('',*,*,#62,.T.);
#62 = EDGE_CURVE('',#22,#63,#65,.T.);
#63 = VERTEX_POINT('',#64);
#64 = CARTESIAN_POINT('',(0.25,-5.551115123126E-17,0.));
#65 = CIRCLE('',#66,0.25);
#66 = AXIS2_PLACEMENT_3D('',#67,#68,#69);
#67 = CARTESIAN_POINT('',(0.25,0.25,0.));
#68 = DIRECTION('',(-0.,0.,1.));
#69 = DIRECTION('',(0.,-1.,0.));
#70 = ORIENTED_EDGE('',*,*,#71,.T.);
#71 = EDGE_CURVE('',#63,#72,#74,.T.);
#72 = VERTEX_POINT('',#73);
#73 = CARTESIAN_POINT('',(0.25,-1.110223024625E-16,0.1));
#74 = LINE('',#75,#76);
#75 = CARTESIAN_POINT('',(0.25,-5.551115123126E-17,0.));
#76 = VECTOR('',#77,1.);
#77 = DIRECTION('',(0.,0.,1.));
#78 = ORIENTED_EDGE('',*,*,#79,.T.);
#79 = EDGE_CURVE('',#72,#24,#80,.T.);
#80 = B_SPLINE_CURVE_WITH_KNOTS('',7,(#81,#82,#83,#84,#85,#86,#87,#88),
  .UNSPECIFIED.,.F.,.F.,(8,8),(0.,1.),.PIECEWISE_BEZIER_KNOTS.);
#81 = CARTESIAN_POINT('',(0.25,-2.775557561563E-17,1.E-01));
#82 = CARTESIAN_POINT('',(0.193900133179,-2.775557561563E-17,0.1));
#83 = CARTESIAN_POINT('',(0.137800529293,1.468722224953E-02,1.E-01));
#84 = CARTESIAN_POINT('',(8.631326910203E-02,4.405931721906E-02,0.1));
#85 = CARTESIAN_POINT('',(4.405931721909E-02,8.631326910209E-02,1.E-01)
  );
#86 = CARTESIAN_POINT('',(1.468722224952E-02,0.137800529293,1.E-01));
#87 = CARTESIAN_POINT('',(-5.451988067356E-17,0.193900133179,1.E-01));
#88 = CARTESIAN_POINT('',(-5.551115123126E-17,0.25,0.1));
#89 = CYLINDRICAL_SURFACE('',#90,0.25);
#90 = AXIS2_PLACEMENT_3D('',#91,#92,#93);
#91 = CARTESIAN_POINT('',(0.25,0.25,0.));
#92 = DIRECTION('',(0.,0.,1.));
#93 = DIRECTION('',(-1.,0.,0.));
#94 = ADVANCED_FACE('',(#95),#126,.T.);
#95 = FACE_BOUND('',#96,.T.);
#96 = EDGE_LOOP('',(#97,#108,#116,#125));
#97 = ORIENTED_EDGE('',*,*,#98,.T.);
#98 = EDGE_CURVE('',#24,#99,#101,.T.);
#99 = VERTEX_POINT('',#100);
#100 = CARTESIAN_POINT('',(0.5,0.5,0.6));
#101 = B_SPLINE_CURVE_WITH_KNOTS('',5,(#102,#103,#104,#105,#106,#107),
  .UNSPECIFIED.,.F.,.F.,(6,6),(0.,1.),.PIECEWISE_BEZIER_KNOTS.);
#102 = CARTESIAN_POINT('',(-1.110223024625E-16,0.25,0.1));
#103 = CARTESIAN_POINT('',(-2.922263668027E-16,0.3,0.257079632679));
#104 = CARTESIAN_POINT('',(6.150750202287E-02,0.35,0.414305821681));
#105 = CARTESIAN_POINT('',(0.185694178319,0.4,0.538492497977));
#106 = CARTESIAN_POINT('',(0.342920367321,0.45,0.6));
#107 = CARTESIAN_POINT('',(0.5,0.5,0.6));
#108 = ORIENTED_EDGE('',*,*,#109,.T.);
#109 = EDGE_CURVE('',#99,#110,#112,.T.);
#110 = VERTEX_POINT('',#111);
#111 = CARTESIAN_POINT('',(0.5,0.7,0.6));
#112 = LINE('',#113,#114);
#113 = CARTESIAN_POINT('',(0.5,0.25,0.6));
#114 = VECTOR('',#115,1.);
#115 = DIRECTION('',(0.,1.,0.));
#116 = ORIENTED_EDGE('',*,*,#117,.F.);
#117 = EDGE_CURVE('',#40,#110,#118,.T.);
#118 = B_SPLINE_CURVE_WITH_KNOTS('',5,(#119,#120,#121,#122,#123,#124),
  .UNSPECIFIED.,.F.,.F.,(6,6),(0.,1.),.PIECEWISE_BEZIER_KNOTS.);
#119 = CARTESIAN_POINT('',(-1.110223024625E-16,0.95,0.1));
#120 = CARTESIAN_POINT('',(-2.922263668027E-16,0.9,0.257079632679));
#121 = CARTESIAN_POINT('',(6.150750202287E-02,0.85,0.414305821681));
#122 = CARTESIAN_POINT('',(0.185694178319,0.8,0.538492497977));
#123 = CARTESIAN_POINT('',(0.342920367321,0.75,0.6));
#124 = CARTESIAN_POINT('',(0.5,0.7,0.6));
#125 = ORIENTED_EDGE('',*,*,#47,.F.);
#126 = CYLINDRICAL_SURFACE('',#127,0.5);
#127 = AXIS2_PLACEMENT_3D('',#128,#129,#130);
#128 = CARTESIAN_POINT('',(0.5,0.25,0.1));
#129 = DIRECTION('',(0.,1.,0.));
#130 = DIRECTION('',(-1.,0.,0.));
#131 = ADVANCED_FACE('',(#132),#185,.F.);
#132 = FACE_BOUND('',#133,.F.);
#133 = EDGE_LOOP('',(#134,#135,#136,#144,#153,#161,#170,#178));
#134 = ORIENTED_EDGE('',*,*,#31,.F.);
#135 = ORIENTED_EDGE('',*,*,#62,.T.);
#136 = ORIENTED_EDGE('',*,*,#137,.T.);
#137 = EDGE_CURVE('',#63,#138,#140,.T.);
#138 = VERTEX_POINT('',#139);
#139 = CARTESIAN_POINT('',(1.95,-5.551115123126E-17,0.));
#140 = LINE('',#141,#142);
#141 = CARTESIAN_POINT('',(0.,0.,0.));
#142 = VECTOR('',#143,1.);
#143 = DIRECTION('',(1.,0.,0.));
#144 = ORIENTED_EDGE('',*,*,#145,.F.);
#145 = EDGE_CURVE('',#146,#138,#148,.T.);
#146 = VERTEX_POINT('',#147);
#147 = CARTESIAN_POINT('',(2.2,0.25,0.));
#148 = CIRCLE('',#149,0.25);
#149 = AXIS2_PLACEMENT_3D('',#150,#151,#152);
#150 = CARTESIAN_POINT('',(1.95,0.25,0.));
#151 = DIRECTION('',(-0.,-0.,-1.));
#152 = DIRECTION('',(0.,-1.,0.));
#153 = ORIENTED_EDGE('',*,*,#154,.T.);
#154 = EDGE_CURVE('',#146,#155,#157,.T.);
#155 = VERTEX_POINT('',#156);
#156 = CARTESIAN_POINT('',(2.2,0.95,0.));
#157 = LINE('',#158,#159);
#158 = CARTESIAN_POINT('',(2.2,0.,0.));
#159 = VECTOR('',#160,1.);
#160 = DIRECTION('',(0.,1.,0.));
#161 = ORIENTED_EDGE('',*,*,#162,.T.);
#162 = EDGE_CURVE('',#155,#163,#165,.T.);
#163 = VERTEX_POINT('',#164);
#164 = CARTESIAN_POINT('',(1.95,1.2,0.));
#165 = CIRCLE('',#166,0.25);
#166 = AXIS2_PLACEMENT_3D('',#167,#168,#169);
#167 = CARTESIAN_POINT('',(1.95,0.95,0.));
#168 = DIRECTION('',(-0.,0.,1.));
#169 = DIRECTION('',(0.,-1.,0.));
#170 = ORIENTED_EDGE('',*,*,#171,.F.);
#171 = EDGE_CURVE('',#172,#163,#174,.T.);
#172 = VERTEX_POINT('',#173);
#173 = CARTESIAN_POINT('',(0.25,1.2,0.));
#174 = LINE('',#175,#176);
#175 = CARTESIAN_POINT('',(0.,1.2,0.));
#176 = VECTOR('',#177,1.);
#177 = DIRECTION('',(1.,0.,0.));
#178 = ORIENTED_EDGE('',*,*,#179,.F.);
#179 = EDGE_CURVE('',#32,#172,#180,.T.);
#180 = CIRCLE('',#181,0.25);
#181 = AXIS2_PLACEMENT_3D('',#182,#183,#184);
#182 = CARTESIAN_POINT('',(0.25,0.95,0.));
#183 = DIRECTION('',(-0.,-0.,-1.));
#184 = DIRECTION('',(0.,-1.,0.));
#185 = PLANE('',#186);
#186 = AXIS2_PLACEMENT_3D('',#187,#188,#189);
#187 = CARTESIAN_POINT('',(0.,0.,0.));
#188 = DIRECTION('',(0.,0.,1.));
#189 = DIRECTION('',(1.,0.,0.));
#190 = ADVANCED_FACE('',(#191),#214,.T.);
#191 = FACE_BOUND('',#192,.F.);
#192 = EDGE_LOOP('',(#193,#194,#195,#203));
#193 = ORIENTED_EDGE('',*,*,#39,.F.);
#194 = ORIENTED_EDGE('',*,*,#179,.T.);
#195 = ORIENTED_EDGE('',*,*,#196,.T.);
#196 = EDGE_CURVE('',#172,#197,#199,.T.);
#197 = VERTEX_POINT('',#198);
#198 = CARTESIAN_POINT('',(0.25,1.2,0.1));
#199 = LINE('',#200,#201);
#200 = CARTESIAN_POINT('',(0.25,1.2,0.));
#201 = VECTOR('',#202,1.);
#202 = DIRECTION('',(0.,0.,1.));
#203 = ORIENTED_EDGE('',*,*,#204,.F.);
#204 = EDGE_CURVE('',#40,#197,#205,.T.);
#205 = B_SPLINE_CURVE_WITH_KNOTS('',7,(#206,#207,#208,#209,#210,#211,
    #212,#213),.UNSPECIFIED.,.F.,.F.,(8,8),(0.,1.),
  .PIECEWISE_BEZIER_KNOTS.);
#206 = CARTESIAN_POINT('',(-1.110223024625E-16,0.95,0.1));
#207 = CARTESIAN_POINT('',(-1.100310319048E-16,1.006099866821,0.1));
#208 = CARTESIAN_POINT('',(1.468722224952E-02,1.062199470707,1.E-01));
#209 = CARTESIAN_POINT('',(4.405931721908E-02,1.113686730898,0.1));
#210 = CARTESIAN_POINT('',(8.631326910204E-02,1.155940682781,1.E-01));
#211 = CARTESIAN_POINT('',(0.137800529293,1.18531277775,0.1));
#212 = CARTESIAN_POINT('',(0.193900133179,1.2,1.E-01));
#213 = CARTESIAN_POINT('',(0.25,1.2,0.1));
#214 = CYLINDRICAL_SURFACE('',#215,0.25);
#215 = AXIS2_PLACEMENT_3D('',#216,#217,#218);
#216 = CARTESIAN_POINT('',(0.25,0.95,0.));
#217 = DIRECTION('',(0.,0.,1.));
#218 = DIRECTION('',(-1.,0.,0.));
#219 = ADVANCED_FACE('',(#220),#233,.F.);
#220 = FACE_BOUND('',#221,.F.);
#221 = EDGE_LOOP('',(#222,#231,#232));
#222 = ORIENTED_EDGE('',*,*,#223,.F.);
#223 = EDGE_CURVE('',#72,#99,#224,.T.);
#224 = B_SPLINE_CURVE_WITH_KNOTS('',5,(#225,#226,#227,#228,#229,#230),
  .UNSPECIFIED.,.F.,.F.,(6,6),(0.,1.),.PIECEWISE_BEZIER_KNOTS.);
#225 = CARTESIAN_POINT('',(0.25,-1.110223024625E-16,0.1));
#226 = CARTESIAN_POINT('',(0.3,-2.922263668027E-16,0.257079632679));
#227 = CARTESIAN_POINT('',(0.35,6.150750202287E-02,0.414305821681));
#228 = CARTESIAN_POINT('',(0.4,0.185694178319,0.538492497977));
#229 = CARTESIAN_POINT('',(0.45,0.342920367321,0.6));
#230 = CARTESIAN_POINT('',(0.5,0.5,0.6));
#231 = ORIENTED_EDGE('',*,*,#79,.T.);
#232 = ORIENTED_EDGE('',*,*,#98,.T.);
#233 = B_SPLINE_SURFACE_WITH_KNOTS('',7,8,(
    (#234,#235,#236,#237,#238,#239,#240,#241,#242)
    ,(#243,#244,#245,#246,#247,#248,#249,#250,#251)
    ,(#252,#253,#254,#255,#256,#257,#258,#259,#260)
    ,(#261,#262,#263,#264,#265,#266,#267,#268,#269)
    ,(#270,#271,#272,#273,#274,#275,#276,#277,#278)
    ,(#279,#280,#281,#282,#283,#284,#285,#286,#287)
    ,(#288,#289,#290,#291,#292,#293,#294,#295,#296)
    ,(#297,#298,#299,#300,#301,#302,#303,#304,#305
  )),.UNSPECIFIED.,.F.,.F.,.F.,(8,8),(9,9),(0.,1.),(0.,1.),
  .PIECEWISE_BEZIER_KNOTS.);
#234 = CARTESIAN_POINT('',(0.25,-2.775557561563E-17,1.E-01));
#235 = CARTESIAN_POINT('',(0.28125,-9.310586156219E-18,0.198174770425));
#236 = CARTESIAN_POINT('',(0.3125,2.20303944806E-02,0.296349571752));
#237 = CARTESIAN_POINT('',(0.34375,6.609096706428E-02,0.388756617168));
#238 = CARTESIAN_POINT('',(0.375,0.13037062211,0.46962937789));
#239 = CARTESIAN_POINT('',(0.40625,0.211243382832,0.533909032936));
#240 = CARTESIAN_POINT('',(0.4375,0.303650428248,0.577969605519));
#241 = CARTESIAN_POINT('',(0.46875,0.401825229575,0.6));
#242 = CARTESIAN_POINT('',(0.5,0.5,0.6));
#243 = CARTESIAN_POINT('',(0.193900133179,-2.775557561563E-17,0.1));
#244 = CARTESIAN_POINT('',(0.223234045103,-3.50624167631E-03,
    0.198174770425));
#245 = CARTESIAN_POINT('',(0.255715156239,1.704084659185E-02,
    0.300346237205));
#246 = CARTESIAN_POINT('',(0.291343435675,6.412946325079E-02,
    0.398351065503));
#247 = CARTESIAN_POINT('',(0.329860155462,0.136128058217,0.481063991364)
  );
#248 = CARTESIAN_POINT('',(0.370747318918,0.221471924295,0.540684228488)
  );
#249 = CARTESIAN_POINT('',(0.41328223733,0.312827236326,0.580273377096)
  );
#250 = CARTESIAN_POINT('',(0.456641120872,0.40692162535,0.6));
#251 = CARTESIAN_POINT('',(0.5,0.5,0.6));
#252 = CARTESIAN_POINT('',(0.137800529293,1.468722224953E-02,1.E-01));
#253 = CARTESIAN_POINT('',(0.158066254643,6.375718843394E-03,
    0.198174770425));
#254 = CARTESIAN_POINT('',(0.180036680433,3.387195352407E-02,
    0.303010680841));
#255 = CARTESIAN_POINT('',(0.217540282574,8.452435528793E-02,
    0.404747364393));
#256 = CARTESIAN_POINT('',(0.265759128854,0.160243840028,0.488687067013)
  );
#257 = CARTESIAN_POINT('',(0.320558581348,0.245979014898,0.545201025523)
  );
#258 = CARTESIAN_POINT('',(0.379009604116,0.333138431215,0.581809224814)
  );
#259 = CARTESIAN_POINT('',(0.435182263443,0.423705493878,0.6));
#260 = CARTESIAN_POINT('',(0.5,0.5,0.6));
#261 = CARTESIAN_POINT('',(8.631326910203E-02,4.405931721906E-02,0.1));
#262 = CARTESIAN_POINT('',(9.157653073476E-02,3.678886926328E-02,
    0.198174770425));
#263 = CARTESIAN_POINT('',(0.113262147072,6.01308086255E-02,
    0.304342902659));
#264 = CARTESIAN_POINT('',(0.156331767245,0.108112868064,0.407945513839)
  );
#265 = CARTESIAN_POINT('',(0.217425434197,0.179852214669,0.492498604837)
  );
#266 = CARTESIAN_POINT('',(0.286946637217,0.261204138635,0.54745942404)
  );
#267 = CARTESIAN_POINT('',(0.35897014006,0.343837879904,0.582577148673)
  );
#268 = CARTESIAN_POINT('',(0.429614417199,0.426935845671,0.6));
#269 = CARTESIAN_POINT('',(0.5,0.5,0.6));
#270 = CARTESIAN_POINT('',(4.405931721909E-02,8.631326910209E-02,1.E-01)
  );
#271 = CARTESIAN_POINT('',(3.678886926331E-02,9.157653073482E-02,
    0.198174770425));
#272 = CARTESIAN_POINT('',(6.013080862552E-02,0.113262147072,
    0.304342902659));
#273 = CARTESIAN_POINT('',(0.108112868064,0.156331767245,0.407945513839)
  );
#274 = CARTESIAN_POINT('',(0.179852214669,0.217425434197,0.492498604837)
  );
#275 = CARTESIAN_POINT('',(0.261204138635,0.286946637217,0.54745942404)
  );
#276 = CARTESIAN_POINT('',(0.343837879904,0.35897014006,0.582577148673)
  );
#277 = CARTESIAN_POINT('',(0.426935845671,0.429614417199,0.6));
#278 = CARTESIAN_POINT('',(0.5,0.5,0.6));
#279 = CARTESIAN_POINT('',(1.468722224952E-02,0.137800529293,1.E-01));
#280 = CARTESIAN_POINT('',(6.375718843378E-03,0.158066254643,
    0.198174770425));
#281 = CARTESIAN_POINT('',(3.387195352405E-02,0.180036680433,
    0.303010680841));
#282 = CARTESIAN_POINT('',(8.452435528792E-02,0.217540282574,
    0.404747364393));
#283 = CARTESIAN_POINT('',(0.160243840028,0.265759128854,0.488687067013)
  );
#284 = CARTESIAN_POINT('',(0.245979014898,0.320558581348,0.545201025523)
  );
#285 = CARTESIAN_POINT('',(0.333138431215,0.379009604116,0.581809224814)
  );
#286 = CARTESIAN_POINT('',(0.423705493878,0.435182263443,0.6));
#287 = CARTESIAN_POINT('',(0.5,0.5,0.6));
#288 = CARTESIAN_POINT('',(-5.451988067356E-17,0.193900133179,1.E-01));
#289 = CARTESIAN_POINT('',(-3.506241676309E-03,0.223234045103,
    0.198174770425));
#290 = CARTESIAN_POINT('',(1.704084659186E-02,0.255715156239,
    0.300346237205));
#291 = CARTESIAN_POINT('',(6.412946325079E-02,0.291343435675,
    0.398351065503));
#292 = CARTESIAN_POINT('',(0.136128058217,0.329860155462,0.481063991364)
  );
#293 = CARTESIAN_POINT('',(0.221471924295,0.370747318918,0.540684228488)
  );
#294 = CARTESIAN_POINT('',(0.312827236326,0.41328223733,0.580273377096)
  );
#295 = CARTESIAN_POINT('',(0.40692162535,0.456641120872,0.6));
#296 = CARTESIAN_POINT('',(0.5,0.5,0.6));
#297 = CARTESIAN_POINT('',(-5.551115123126E-17,0.25,0.1));
#298 = CARTESIAN_POINT('',(-5.788284348357E-17,0.28125,0.198174770425));
#299 = CARTESIAN_POINT('',(2.20303944806E-02,0.3125,0.296349571752));
#300 = CARTESIAN_POINT('',(6.609096706428E-02,0.34375,0.388756617168));
#301 = CARTESIAN_POINT('',(0.13037062211,0.375,0.46962937789));
#302 = CARTESIAN_POINT('',(0.211243382832,0.40625,0.533909032936));
#303 = CARTESIAN_POINT('',(0.303650428248,0.4375,0.577969605519));
#304 = CARTESIAN_POINT('',(0.401825229575,0.46875,0.6));
#305 = CARTESIAN_POINT('',(0.5,0.5,0.6));
#306 = ADVANCED_FACE('',(#307),#325,.F.);
#307 = FACE_BOUND('',#308,.F.);
#308 = EDGE_LOOP('',(#309,#310,#318,#324));
#309 = ORIENTED_EDGE('',*,*,#71,.T.);
#310 = ORIENTED_EDGE('',*,*,#311,.F.);
#311 = EDGE_CURVE('',#312,#72,#314,.T.);
#312 = VERTEX_POINT('',#313);
#313 = CARTESIAN_POINT('',(1.95,-1.110223024625E-16,0.1));
#314 = LINE('',#315,#316);
#315 = CARTESIAN_POINT('',(1.95,-1.110223024625E-16,0.1));
#316 = VECTOR('',#317,1.);
#317 = DIRECTION('',(-1.,-0.,-0.));
#318 = ORIENTED_EDGE('',*,*,#319,.F.);
#319 = EDGE_CURVE('',#138,#312,#320,.T.);
#320 = LINE('',#321,#322);
#321 = CARTESIAN_POINT('',(1.95,-5.551115123126E-17,0.));
#322 = VECTOR('',#323,1.);
#323 = DIRECTION('',(0.,0.,1.));
#324 = ORIENTED_EDGE('',*,*,#137,.F.);
#325 = PLANE('',#326);
#326 = AXIS2_PLACEMENT_3D('',#327,#328,#329);
#327 = CARTESIAN_POINT('',(0.,0.,0.));
#328 = DIRECTION('',(0.,1.,0.));
#329 = DIRECTION('',(0.,0.,1.));
#330 = ADVANCED_FACE('',(#331),#356,.T.);
#331 = FACE_BOUND('',#332,.T.);
#332 = EDGE_LOOP('',(#333,#334,#342,#350));
#333 = ORIENTED_EDGE('',*,*,#109,.F.);
#334 = ORIENTED_EDGE('',*,*,#335,.F.);
#335 = EDGE_CURVE('',#336,#99,#338,.T.);
#336 = VERTEX_POINT('',#337);
#337 = CARTESIAN_POINT('',(1.7,0.5,0.6));
#338 = LINE('',#339,#340);
#339 = CARTESIAN_POINT('',(1.95,0.5,0.6));
#340 = VECTOR('',#341,1.);
#341 = DIRECTION('',(-1.,-0.,-0.));
#342 = ORIENTED_EDGE('',*,*,#343,.F.);
#343 = EDGE_CURVE('',#344,#336,#346,.T.);
#344 = VERTEX_POINT('',#345);
#345 = CARTESIAN_POINT('',(1.7,0.7,0.6));
#346 = LINE('',#347,#348);
#347 = CARTESIAN_POINT('',(1.7,0.95,0.6));
#348 = VECTOR('',#349,1.);
#349 = DIRECTION('',(-0.,-1.,-0.));
#350 = ORIENTED_EDGE('',*,*,#351,.F.);
#351 = EDGE_CURVE('',#110,#344,#352,.T.);
#352 = LINE('',#353,#354);
#353 = CARTESIAN_POINT('',(0.25,0.7,0.6));
#354 = VECTOR('',#355,1.);
#355 = DIRECTION('',(1.,0.,0.));
#356 = PLANE('',#357);
#357 = AXIS2_PLACEMENT_3D('',#358,#359,#360);
#358 = CARTESIAN_POINT('',(0.,0.,0.6));
#359 = DIRECTION('',(0.,0.,1.));
#360 = DIRECTION('',(1.,0.,0.));
#361 = ADVANCED_FACE('',(#362),#377,.F.);
#362 = FACE_BOUND('',#363,.F.);
#363 = EDGE_LOOP('',(#364,#365,#366));
#364 = ORIENTED_EDGE('',*,*,#117,.F.);
#365 = ORIENTED_EDGE('',*,*,#204,.T.);
#366 = ORIENTED_EDGE('',*,*,#367,.T.);
#367 = EDGE_CURVE('',#197,#110,#368,.T.);
#368 = B_SPLINE_CURVE_WITH_KNOTS('',7,(#369,#370,#371,#372,#373,#374,
    #375,#376),.UNSPECIFIED.,.F.,.F.,(8,8),(0.,1.),
  .PIECEWISE_BEZIER_KNOTS.);
#369 = CARTESIAN_POINT('',(0.25,1.2,0.1));
#370 = CARTESIAN_POINT('',(0.285714285714,1.2,0.212199737628));
#371 = CARTESIAN_POINT('',(0.321428571429,1.170625556724,0.324398932492)
  );
#372 = CARTESIAN_POINT('',(0.357142857143,1.111881361101,0.427373470411)
  );
#373 = CARTESIAN_POINT('',(0.392857142857,1.027373470411,0.511881361101)
  );
#374 = CARTESIAN_POINT('',(0.428571428571,0.924398932492,0.570625556724)
  );
#375 = CARTESIAN_POINT('',(0.464285714286,0.812199737628,0.6));
#376 = CARTESIAN_POINT('',(0.5,0.7,0.6));
#377 = B_SPLINE_SURFACE_WITH_KNOTS('',7,7,(
    (#378,#379,#380,#381,#382,#383,#384,#385)
    ,(#386,#387,#388,#389,#390,#391,#392,#393)
    ,(#394,#395,#396,#397,#398,#399,#400,#401)
    ,(#402,#403,#404,#405,#406,#407,#408,#409)
    ,(#410,#411,#412,#413,#414,#415,#416,#417)
    ,(#418,#419,#420,#421,#422,#423,#424,#425)
    ,(#426,#427,#428,#429,#430,#431,#432,#433)
    ,(#434,#435,#436,#437,#438,#439,#440,#441
  )),.UNSPECIFIED.,.F.,.F.,.F.,(8,8),(8,8),(0.,1.),(0.,1.),
  .PIECEWISE_BEZIER_KNOTS.);
#378 = CARTESIAN_POINT('',(-1.110223024625E-16,0.95,0.1));
#379 = CARTESIAN_POINT('',(-1.129893549755E-16,0.914285714286,
    0.212199737628));
#380 = CARTESIAN_POINT('',(2.937444327581E-02,0.878571428571,
    0.324398932492));
#381 = CARTESIAN_POINT('',(8.811863889891E-02,0.842857142857,
    0.427373470411));
#382 = CARTESIAN_POINT('',(0.172626529588,0.807142857143,0.511881361101)
  );
#383 = CARTESIAN_POINT('',(0.275601067508,0.771428571429,0.570625556724)
  );
#384 = CARTESIAN_POINT('',(0.387800262372,0.735714285714,0.6));
#385 = CARTESIAN_POINT('',(0.5,0.7,0.6));
#386 = CARTESIAN_POINT('',(-1.100310319048E-16,1.006099866821,0.1));
#387 = CARTESIAN_POINT('',(-4.007133344354E-03,0.972575396051,
    0.212199737628));
#388 = CARTESIAN_POINT('',(2.397576000479E-02,0.934854576241,
    0.329617682176));
#389 = CARTESIAN_POINT('',(8.853303201107E-02,0.892938077524,
    0.44001626627));
#390 = CARTESIAN_POINT('',(0.1831782275,0.847341050941,0.521367667608));
#391 = CARTESIAN_POINT('',(0.28581366364,0.799105931897,0.573587114573)
  );
#392 = CARTESIAN_POINT('',(0.393624714686,0.749553004717,0.6));
#393 = CARTESIAN_POINT('',(0.5,0.7,0.6));
#394 = CARTESIAN_POINT('',(1.468722224952E-02,1.062199470707,1.E-01));
#395 = CARTESIAN_POINT('',(5.188361213936E-03,1.039038641736,
    0.212199737628));
#396 = CARTESIAN_POINT('',(4.151321580039E-02,1.012011397141,
    0.333096848632));
#397 = CARTESIAN_POINT('',(0.110747449457,0.964625247674,0.448444796843)
  );
#398 = CARTESIAN_POINT('',(0.209011512263,0.904037552982,0.527691871946)
  );
#399 = CARTESIAN_POINT('',(0.308285536751,0.838275424896,0.575561486473)
  );
#400 = CARTESIAN_POINT('',(0.412806278718,0.774077413208,0.6));
#401 = CARTESIAN_POINT('',(0.5,0.7,0.6));
#402 = CARTESIAN_POINT('',(4.405931721908E-02,1.113686730898,0.1));
#403 = CARTESIAN_POINT('',(3.575023384105E-02,1.107671574746,
    0.212199737628));
#404 = CARTESIAN_POINT('',(6.72932303735E-02,1.079311785109,
    0.334836431861));
#405 = CARTESIAN_POINT('',(0.132979420107,1.022032575405,0.452659062129)
  );
#406 = CARTESIAN_POINT('',(0.226069162729,0.943553226593,0.530853974115)
  );
#407 = CARTESIAN_POINT('',(0.320387047528,0.861804379872,0.576548672422)
  );
#408 = CARTESIAN_POINT('',(0.416498109338,0.780440666058,0.6));
#409 = CARTESIAN_POINT('',(0.5,0.7,0.6));
#410 = CARTESIAN_POINT('',(8.631326910204E-02,1.155940682781,1.E-01));
#411 = CARTESIAN_POINT('',(9.232842525373E-02,1.164249766159,
    0.212199737628));
#412 = CARTESIAN_POINT('',(0.120688214891,1.132706769626,0.334836431861)
  );
#413 = CARTESIAN_POINT('',(0.177967424595,1.067020579893,0.452659062129)
  );
#414 = CARTESIAN_POINT('',(0.256446773407,0.973930837271,0.530853974114)
  );
#415 = CARTESIAN_POINT('',(0.338195620128,0.879612952472,0.576548672422)
  );
#416 = CARTESIAN_POINT('',(0.419559333942,0.783501890662,0.6));
#417 = CARTESIAN_POINT('',(0.5,0.7,0.6));
#418 = CARTESIAN_POINT('',(0.137800529293,1.18531277775,0.1));
#419 = CARTESIAN_POINT('',(0.160961358264,1.194811638786,0.212199737628)
  );
#420 = CARTESIAN_POINT('',(0.187988602859,1.1584867842,0.333096848632));
#421 = CARTESIAN_POINT('',(0.235374752326,1.089252550543,0.448444796843)
  );
#422 = CARTESIAN_POINT('',(0.295962447018,0.990988487737,0.527691871946)
  );
#423 = CARTESIAN_POINT('',(0.361724575104,0.891714463249,0.575561486473)
  );
#424 = CARTESIAN_POINT('',(0.425922586792,0.787193721282,0.6));
#425 = CARTESIAN_POINT('',(0.5,0.7,0.6));
#426 = CARTESIAN_POINT('',(0.193900133179,1.2,1.E-01));
#427 = CARTESIAN_POINT('',(0.227424603949,1.204007133344,0.212199737628)
  );
#428 = CARTESIAN_POINT('',(0.265145423759,1.176024239995,0.329617682176)
  );
#429 = CARTESIAN_POINT('',(0.307061922476,1.111466967989,0.44001626627)
  );
#430 = CARTESIAN_POINT('',(0.352658949059,1.0168217725,0.521367667608));
#431 = CARTESIAN_POINT('',(0.400894068103,0.91418633636,0.573587114573)
  );
#432 = CARTESIAN_POINT('',(0.450446995283,0.806375285314,0.6));
#433 = CARTESIAN_POINT('',(0.5,0.7,0.6));
#434 = CARTESIAN_POINT('',(0.25,1.2,0.1));
#435 = CARTESIAN_POINT('',(0.285714285714,1.2,0.212199737628));
#436 = CARTESIAN_POINT('',(0.321428571429,1.170625556724,0.324398932492)
  );
#437 = CARTESIAN_POINT('',(0.357142857143,1.111881361101,0.427373470411)
  );
#438 = CARTESIAN_POINT('',(0.392857142857,1.027373470411,0.511881361101)
  );
#439 = CARTESIAN_POINT('',(0.428571428571,0.924398932492,0.570625556724)
  );
#440 = CARTESIAN_POINT('',(0.464285714286,0.812199737628,0.6));
#441 = CARTESIAN_POINT('',(0.5,0.7,0.6));
#442 = ADVANCED_FACE('',(#443),#461,.T.);
#443 = FACE_BOUND('',#444,.T.);
#444 = EDGE_LOOP('',(#445,#446,#454,#460));
#445 = ORIENTED_EDGE('',*,*,#196,.T.);
#446 = ORIENTED_EDGE('',*,*,#447,.T.);
#447 = EDGE_CURVE('',#197,#448,#450,.T.);
#448 = VERTEX_POINT('',#449);
#449 = CARTESIAN_POINT('',(1.95,1.2,0.1));
#450 = LINE('',#451,#452);
#451 = CARTESIAN_POINT('',(0.25,1.2,0.1));
#452 = VECTOR('',#453,1.);
#453 = DIRECTION('',(1.,0.,0.));
#454 = ORIENTED_EDGE('',*,*,#455,.F.);
#455 = EDGE_CURVE('',#163,#448,#456,.T.);
#456 = LINE('',#457,#458);
#457 = CARTESIAN_POINT('',(1.95,1.2,0.));
#458 = VECTOR('',#459,1.);
#459 = DIRECTION('',(0.,0.,1.));
#460 = ORIENTED_EDGE('',*,*,#171,.F.);
#461 = PLANE('',#462);
#462 = AXIS2_PLACEMENT_3D('',#463,#464,#465);
#463 = CARTESIAN_POINT('',(0.,1.2,0.));
#464 = DIRECTION('',(0.,1.,0.));
#465 = DIRECTION('',(0.,0.,1.));
#466 = ADVANCED_FACE('',(#467),#490,.T.);
#467 = FACE_BOUND('',#468,.F.);
#468 = EDGE_LOOP('',(#469,#477,#478,#479));
#469 = ORIENTED_EDGE('',*,*,#470,.F.);
#470 = EDGE_CURVE('',#146,#471,#473,.T.);
#471 = VERTEX_POINT('',#472);
#472 = CARTESIAN_POINT('',(2.2,0.25,0.1));
#473 = LINE('',#474,#475);
#474 = CARTESIAN_POINT('',(2.2,0.25,0.));
#475 = VECTOR('',#476,1.);
#476 = DIRECTION('',(0.,0.,1.));
#477 = ORIENTED_EDGE('',*,*,#145,.T.);
#478 = ORIENTED_EDGE('',*,*,#319,.T.);
#479 = ORIENTED_EDGE('',*,*,#480,.F.);
#480 = EDGE_CURVE('',#471,#312,#481,.T.);
#481 = B_SPLINE_CURVE_WITH_KNOTS('',7,(#482,#483,#484,#485,#486,#487,
    #488,#489),.UNSPECIFIED.,.F.,.F.,(8,8),(0.,1.),
  .PIECEWISE_BEZIER_KNOTS.);
#482 = CARTESIAN_POINT('',(2.2,0.25,0.1));
#483 = CARTESIAN_POINT('',(2.2,0.193900133179,0.1));
#484 = CARTESIAN_POINT('',(2.18531277775,0.137800529293,1.E-01));
#485 = CARTESIAN_POINT('',(2.155940682781,8.631326910208E-02,0.1));
#486 = CARTESIAN_POINT('',(2.113686730898,4.405931721906E-02,1.E-01));
#487 = CARTESIAN_POINT('',(2.062199470707,1.468722224953E-02,0.1));
#488 = CARTESIAN_POINT('',(2.006099866821,-1.139961141356E-16,0.1));
#489 = CARTESIAN_POINT('',(1.95,-1.110223024625E-16,0.1));
#490 = CYLINDRICAL_SURFACE('',#491,0.25);
#491 = AXIS2_PLACEMENT_3D('',#492,#493,#494);
#492 = CARTESIAN_POINT('',(1.95,0.25,0.));
#493 = DIRECTION('',(0.,0.,1.));
#494 = DIRECTION('',(1.,0.,0.));
#495 = ADVANCED_FACE('',(#496),#519,.T.);
#496 = FACE_BOUND('',#497,.T.);
#497 = EDGE_LOOP('',(#498,#506,#507,#508));
#498 = ORIENTED_EDGE('',*,*,#499,.F.);
#499 = EDGE_CURVE('',#155,#500,#502,.T.);
#500 = VERTEX_POINT('',#501);
#501 = CARTESIAN_POINT('',(2.2,0.95,0.1));
#502 = LINE('',#503,#504);
#503 = CARTESIAN_POINT('',(2.2,0.95,0.));
#504 = VECTOR('',#505,1.);
#505 = DIRECTION('',(0.,0.,1.));
#506 = ORIENTED_EDGE('',*,*,#162,.T.);
#507 = ORIENTED_EDGE('',*,*,#455,.T.);
#508 = ORIENTED_EDGE('',*,*,#509,.T.);
#509 = EDGE_CURVE('',#448,#500,#510,.T.);
#510 = B_SPLINE_CURVE_WITH_KNOTS('',7,(#511,#512,#513,#514,#515,#516,
    #517,#518),.UNSPECIFIED.,.F.,.F.,(8,8),(0.,1.),
  .PIECEWISE_BEZIER_KNOTS.);
#511 = CARTESIAN_POINT('',(1.95,1.2,0.1));
#512 = CARTESIAN_POINT('',(2.006099866821,1.2,0.1));
#513 = CARTESIAN_POINT('',(2.062199470707,1.18531277775,1.E-01));
#514 = CARTESIAN_POINT('',(2.113686730898,1.155940682781,0.1));
#515 = CARTESIAN_POINT('',(2.155940682781,1.113686730898,1.E-01));
#516 = CARTESIAN_POINT('',(2.185312777751,1.062199470707,0.1));
#517 = CARTESIAN_POINT('',(2.2,1.006099866821,1.E-01));
#518 = CARTESIAN_POINT('',(2.2,0.95,0.1));
#519 = CYLINDRICAL_SURFACE('',#520,0.25);
#520 = AXIS2_PLACEMENT_3D('',#521,#522,#523);
#521 = CARTESIAN_POINT('',(1.95,0.95,0.));
#522 = DIRECTION('',(0.,0.,1.));
#523 = DIRECTION('',(1.,0.,0.));
#524 = ADVANCED_FACE('',(#525),#536,.T.);
#525 = FACE_BOUND('',#526,.T.);
#526 = EDGE_LOOP('',(#527,#528,#529,#530));
#527 = ORIENTED_EDGE('',*,*,#470,.F.);
#528 = ORIENTED_EDGE('',*,*,#154,.T.);
#529 = ORIENTED_EDGE('',*,*,#499,.T.);
#530 = ORIENTED_EDGE('',*,*,#531,.T.);
#531 = EDGE_CURVE('',#500,#471,#532,.T.);
#532 = LINE('',#533,#534);
#533 = CARTESIAN_POINT('',(2.2,0.95,0.1));
#534 = VECTOR('',#535,1.);
#535 = DIRECTION('',(-0.,-1.,-0.));
#536 = PLANE('',#537);
#537 = AXIS2_PLACEMENT_3D('',#538,#539,#540);
#538 = CARTESIAN_POINT('',(2.2,0.,0.));
#539 = DIRECTION('',(1.,0.,0.));
#540 = DIRECTION('',(0.,0.,1.));
#541 = ADVANCED_FACE('',(#542),#558,.T.);
#542 = FACE_BOUND('',#543,.T.);
#543 = EDGE_LOOP('',(#544,#555,#556,#557));
#544 = ORIENTED_EDGE('',*,*,#545,.T.);
#545 = EDGE_CURVE('',#312,#336,#546,.T.);
#546 = B_SPLINE_CURVE_WITH_KNOTS('',7,(#547,#548,#549,#550,#551,#552,
    #553,#554),.UNSPECIFIED.,.F.,.F.,(8,8),(0.,1.),
  .PIECEWISE_BEZIER_KNOTS.);
#547 = CARTESIAN_POINT('',(1.95,-1.110223024625E-16,0.1));
#548 = CARTESIAN_POINT('',(1.914285714286,-7.23937279171E-17,
    0.212199737628));
#549 = CARTESIAN_POINT('',(1.878571428571,2.937444327581E-02,
    0.324398932492));
#550 = CARTESIAN_POINT('',(1.842857142857,8.811863889891E-02,
    0.427373470411));
#551 = CARTESIAN_POINT('',(1.807142857143,0.172626529589,0.511881361101)
  );
#552 = CARTESIAN_POINT('',(1.771428571429,0.275601067508,0.570625556724)
  );
#553 = CARTESIAN_POINT('',(1.735714285714,0.387800262372,0.6));
#554 = CARTESIAN_POINT('',(1.7,0.5,0.6));
#555 = ORIENTED_EDGE('',*,*,#335,.T.);
#556 = ORIENTED_EDGE('',*,*,#223,.F.);
#557 = ORIENTED_EDGE('',*,*,#311,.F.);
#558 = CYLINDRICAL_SURFACE('',#559,0.5);
#559 = AXIS2_PLACEMENT_3D('',#560,#561,#562);
#560 = CARTESIAN_POINT('',(1.95,0.5,0.1));
#561 = DIRECTION('',(-1.,-0.,-0.));
#562 = DIRECTION('',(0.,-1.,0.));
#563 = ADVANCED_FACE('',(#564),#578,.T.);
#564 = FACE_BOUND('',#565,.T.);
#565 = EDGE_LOOP('',(#566,#567,#568,#577));
#566 = ORIENTED_EDGE('',*,*,#367,.T.);
#567 = ORIENTED_EDGE('',*,*,#351,.T.);
#568 = ORIENTED_EDGE('',*,*,#569,.F.);
#569 = EDGE_CURVE('',#448,#344,#570,.T.);
#570 = B_SPLINE_CURVE_WITH_KNOTS('',5,(#571,#572,#573,#574,#575,#576),
  .UNSPECIFIED.,.F.,.F.,(6,6),(0.,1.),.PIECEWISE_BEZIER_KNOTS.);
#571 = CARTESIAN_POINT('',(1.95,1.2,0.1));
#572 = CARTESIAN_POINT('',(1.9,1.2,0.257079632679));
#573 = CARTESIAN_POINT('',(1.85,1.138492497977,0.414305821681));
#574 = CARTESIAN_POINT('',(1.8,1.014305821681,0.538492497977));
#575 = CARTESIAN_POINT('',(1.75,0.857079632679,0.6));
#576 = CARTESIAN_POINT('',(1.7,0.7,0.6));
#577 = ORIENTED_EDGE('',*,*,#447,.F.);
#578 = CYLINDRICAL_SURFACE('',#579,0.5);
#579 = AXIS2_PLACEMENT_3D('',#580,#581,#582);
#580 = CARTESIAN_POINT('',(0.25,0.7,0.1));
#581 = DIRECTION('',(1.,0.,0.));
#582 = DIRECTION('',(-0.,1.,0.));
#583 = ADVANCED_FACE('',(#584),#608,.T.);
#584 = FACE_BOUND('',#585,.T.);
#585 = EDGE_LOOP('',(#586,#597,#598,#607));
#586 = ORIENTED_EDGE('',*,*,#587,.T.);
#587 = EDGE_CURVE('',#500,#344,#588,.T.);
#588 = B_SPLINE_CURVE_WITH_KNOTS('',7,(#589,#590,#591,#592,#593,#594,
    #595,#596),.UNSPECIFIED.,.F.,.F.,(8,8),(0.,1.),
  .PIECEWISE_BEZIER_KNOTS.);
#589 = CARTESIAN_POINT('',(2.2,0.95,0.1));
#590 = CARTESIAN_POINT('',(2.2,0.914285714286,0.212199737628));
#591 = CARTESIAN_POINT('',(2.170625556724,0.878571428571,0.324398932492)
  );
#592 = CARTESIAN_POINT('',(2.111881361101,0.842857142857,0.427373470411)
  );
#593 = CARTESIAN_POINT('',(2.027373470411,0.807142857143,0.511881361101)
  );
#594 = CARTESIAN_POINT('',(1.924398932492,0.771428571429,0.570625556724)
  );
#595 = CARTESIAN_POINT('',(1.812199737628,0.735714285714,0.6));
#596 = CARTESIAN_POINT('',(1.7,0.7,0.6));
#597 = ORIENTED_EDGE('',*,*,#343,.T.);
#598 = ORIENTED_EDGE('',*,*,#599,.F.);
#599 = EDGE_CURVE('',#471,#336,#600,.T.);
#600 = B_SPLINE_CURVE_WITH_KNOTS('',5,(#601,#602,#603,#604,#605,#606),
  .UNSPECIFIED.,.F.,.F.,(6,6),(0.,1.),.PIECEWISE_BEZIER_KNOTS.);
#601 = CARTESIAN_POINT('',(2.2,0.25,0.1));
#602 = CARTESIAN_POINT('',(2.2,0.3,0.257079632679));
#603 = CARTESIAN_POINT('',(2.138492497977,0.35,0.414305821681));
#604 = CARTESIAN_POINT('',(2.014305821681,0.4,0.538492497977));
#605 = CARTESIAN_POINT('',(1.857079632679,0.45,0.6));
#606 = CARTESIAN_POINT('',(1.7,0.5,0.6));
#607 = ORIENTED_EDGE('',*,*,#531,.F.);
#608 = CYLINDRICAL_SURFACE('',#609,0.5);
#609 = AXIS2_PLACEMENT_3D('',#610,#611,#612);
#610 = CARTESIAN_POINT('',(1.7,0.95,0.1));
#611 = DIRECTION('',(-0.,-1.,-0.));
#612 = DIRECTION('',(1.,0.,-0.));
#613 = ADVANCED_FACE('',(#614),#619,.F.);
#614 = FACE_BOUND('',#615,.F.);
#615 = EDGE_LOOP('',(#616,#617,#618));
#616 = ORIENTED_EDGE('',*,*,#599,.F.);
#617 = ORIENTED_EDGE('',*,*,#480,.T.);
#618 = ORIENTED_EDGE('',*,*,#545,.T.);
#619 = B_SPLINE_SURFACE_WITH_KNOTS('',7,7,(
    (#620,#621,#622,#623,#624,#625,#626,#627)
    ,(#628,#629,#630,#631,#632,#633,#634,#635)
    ,(#636,#637,#638,#639,#640,#641,#642,#643)
    ,(#644,#645,#646,#647,#648,#649,#650,#651)
    ,(#652,#653,#654,#655,#656,#657,#658,#659)
    ,(#660,#661,#662,#663,#664,#665,#666,#667)
    ,(#668,#669,#670,#671,#672,#673,#674,#675)
    ,(#676,#677,#678,#679,#680,#681,#682,#683
  )),.UNSPECIFIED.,.F.,.F.,.F.,(8,8),(8,8),(0.,1.),(0.,1.),
  .PIECEWISE_BEZIER_KNOTS.);
#620 = CARTESIAN_POINT('',(2.2,0.25,0.1));
#621 = CARTESIAN_POINT('',(2.2,0.285714285714,0.212199737628));
#622 = CARTESIAN_POINT('',(2.170625556724,0.321428571429,0.324398932492)
  );
#623 = CARTESIAN_POINT('',(2.111881361101,0.357142857143,0.427373470411)
  );
#624 = CARTESIAN_POINT('',(2.027373470411,0.392857142857,0.511881361101)
  );
#625 = CARTESIAN_POINT('',(1.924398932492,0.428571428571,0.570625556724)
  );
#626 = CARTESIAN_POINT('',(1.812199737628,0.464285714286,0.6));
#627 = CARTESIAN_POINT('',(1.7,0.5,0.6));
#628 = CARTESIAN_POINT('',(2.2,0.193900133179,0.1));
#629 = CARTESIAN_POINT('',(2.204007133344,0.227424603949,0.212199737628)
  );
#630 = CARTESIAN_POINT('',(2.176024239995,0.265145423759,0.329617682176)
  );
#631 = CARTESIAN_POINT('',(2.111466967989,0.307061922476,0.44001626627)
  );
#632 = CARTESIAN_POINT('',(2.0168217725,0.352658949059,0.521367667608));
#633 = CARTESIAN_POINT('',(1.91418633636,0.400894068103,0.573587114573)
  );
#634 = CARTESIAN_POINT('',(1.806375285314,0.450446995283,0.6));
#635 = CARTESIAN_POINT('',(1.7,0.5,0.6));
#636 = CARTESIAN_POINT('',(2.18531277775,0.137800529293,1.E-01));
#637 = CARTESIAN_POINT('',(2.194811638786,0.160961358264,0.212199737628)
  );
#638 = CARTESIAN_POINT('',(2.1584867842,0.187988602859,0.333096848632));
#639 = CARTESIAN_POINT('',(2.089252550543,0.235374752326,0.448444796843)
  );
#640 = CARTESIAN_POINT('',(1.990988487737,0.295962447018,0.527691871946)
  );
#641 = CARTESIAN_POINT('',(1.891714463249,0.361724575104,0.575561486473)
  );
#642 = CARTESIAN_POINT('',(1.787193721282,0.425922586792,0.6));
#643 = CARTESIAN_POINT('',(1.7,0.5,0.6));
#644 = CARTESIAN_POINT('',(2.155940682781,8.631326910208E-02,0.1));
#645 = CARTESIAN_POINT('',(2.164249766159,9.232842525376E-02,
    0.212199737628));
#646 = CARTESIAN_POINT('',(2.132706769627,0.120688214891,0.334836431861)
  );
#647 = CARTESIAN_POINT('',(2.067020579893,0.177967424595,0.452659062129)
  );
#648 = CARTESIAN_POINT('',(1.973930837271,0.256446773407,0.530853974115)
  );
#649 = CARTESIAN_POINT('',(1.879612952472,0.338195620128,0.576548672422)
  );
#650 = CARTESIAN_POINT('',(1.783501890662,0.419559333942,0.6));
#651 = CARTESIAN_POINT('',(1.7,0.5,0.6));
#652 = CARTESIAN_POINT('',(2.113686730898,4.405931721906E-02,1.E-01));
#653 = CARTESIAN_POINT('',(2.107671574746,3.575023384104E-02,
    0.212199737628));
#654 = CARTESIAN_POINT('',(2.079311785109,6.72932303735E-02,
    0.334836431861));
#655 = CARTESIAN_POINT('',(2.022032575405,0.132979420107,0.452659062129)
  );
#656 = CARTESIAN_POINT('',(1.943553226593,0.226069162729,0.530853974114)
  );
#657 = CARTESIAN_POINT('',(1.861804379872,0.320387047528,0.576548672422)
  );
#658 = CARTESIAN_POINT('',(1.780440666058,0.416498109338,0.6));
#659 = CARTESIAN_POINT('',(1.7,0.5,0.6));
#660 = CARTESIAN_POINT('',(2.062199470707,1.468722224953E-02,0.1));
#661 = CARTESIAN_POINT('',(2.039038641736,5.188361213931E-03,
    0.212199737628));
#662 = CARTESIAN_POINT('',(2.012011397141,4.151321580038E-02,
    0.333096848632));
#663 = CARTESIAN_POINT('',(1.964625247674,0.110747449457,0.448444796843)
  );
#664 = CARTESIAN_POINT('',(1.904037552982,0.209011512263,0.527691871946)
  );
#665 = CARTESIAN_POINT('',(1.838275424896,0.308285536751,0.575561486473)
  );
#666 = CARTESIAN_POINT('',(1.774077413208,0.412806278718,0.6));
#667 = CARTESIAN_POINT('',(1.7,0.5,0.6));
#668 = CARTESIAN_POINT('',(2.006099866821,-1.139961141356E-16,0.1));
#669 = CARTESIAN_POINT('',(1.972575396051,-4.007133344352E-03,
    0.212199737628));
#670 = CARTESIAN_POINT('',(1.934854576241,2.397576000479E-02,
    0.329617682176));
#671 = CARTESIAN_POINT('',(1.892938077524,8.853303201107E-02,
    0.44001626627));
#672 = CARTESIAN_POINT('',(1.847341050941,0.1831782275,0.521367667608));
#673 = CARTESIAN_POINT('',(1.799105931897,0.28581366364,0.573587114573)
  );
#674 = CARTESIAN_POINT('',(1.749553004717,0.393624714686,0.6));
#675 = CARTESIAN_POINT('',(1.7,0.5,0.6));
#676 = CARTESIAN_POINT('',(1.95,-1.110223024625E-16,0.1));
#677 = CARTESIAN_POINT('',(1.914285714286,-7.23937279171E-17,
    0.212199737628));
#678 = CARTESIAN_POINT('',(1.878571428571,2.937444327581E-02,
    0.324398932492));
#679 = CARTESIAN_POINT('',(1.842857142857,8.811863889891E-02,
    0.427373470411));
#680 = CARTESIAN_POINT('',(1.807142857143,0.172626529589,0.511881361101)
  );
#681 = CARTESIAN_POINT('',(1.771428571429,0.275601067508,0.570625556724)
  );
#682 = CARTESIAN_POINT('',(1.735714285714,0.387800262372,0.6));
#683 = CARTESIAN_POINT('',(1.7,0.5,0.6));
#684 = ADVANCED_FACE('',(#685),#690,.F.);
#685 = FACE_BOUND('',#686,.F.);
#686 = EDGE_LOOP('',(#687,#688,#689));
#687 = ORIENTED_EDGE('',*,*,#569,.F.);
#688 = ORIENTED_EDGE('',*,*,#509,.T.);
#689 = ORIENTED_EDGE('',*,*,#587,.T.);
#690 = B_SPLINE_SURFACE_WITH_KNOTS('',7,7,(
    (#691,#692,#693,#694,#695,#696,#697,#698)
    ,(#699,#700,#701,#702,#703,#704,#705,#706)
    ,(#707,#708,#709,#710,#711,#712,#713,#714)
    ,(#715,#716,#717,#718,#719,#720,#721,#722)
    ,(#723,#724,#725,#726,#727,#728,#729,#730)
    ,(#731,#732,#733,#734,#735,#736,#737,#738)
    ,(#739,#740,#741,#742,#743,#744,#745,#746)
    ,(#747,#748,#749,#750,#751,#752,#753,#754
  )),.UNSPECIFIED.,.F.,.F.,.F.,(8,8),(8,8),(0.,1.),(0.,1.),
  .PIECEWISE_BEZIER_KNOTS.);
#691 = CARTESIAN_POINT('',(1.95,1.2,0.1));
#692 = CARTESIAN_POINT('',(1.914285714286,1.2,0.212199737628));
#693 = CARTESIAN_POINT('',(1.878571428571,1.170625556724,0.324398932492)
  );
#694 = CARTESIAN_POINT('',(1.842857142857,1.111881361101,0.427373470411)
  );
#695 = CARTESIAN_POINT('',(1.807142857143,1.027373470411,0.511881361101)
  );
#696 = CARTESIAN_POINT('',(1.771428571429,0.924398932492,0.570625556724)
  );
#697 = CARTESIAN_POINT('',(1.735714285714,0.812199737628,0.6));
#698 = CARTESIAN_POINT('',(1.7,0.7,0.6));
#699 = CARTESIAN_POINT('',(2.006099866821,1.2,0.1));
#700 = CARTESIAN_POINT('',(1.972575396051,1.204007133344,0.212199737628)
  );
#701 = CARTESIAN_POINT('',(1.934854576241,1.176024239995,0.329617682176)
  );
#702 = CARTESIAN_POINT('',(1.892938077524,1.111466967989,0.44001626627)
  );
#703 = CARTESIAN_POINT('',(1.847341050941,1.0168217725,0.521367667608));
#704 = CARTESIAN_POINT('',(1.799105931897,0.91418633636,0.573587114573)
  );
#705 = CARTESIAN_POINT('',(1.749553004717,0.806375285314,0.6));
#706 = CARTESIAN_POINT('',(1.7,0.7,0.6));
#707 = CARTESIAN_POINT('',(2.062199470707,1.18531277775,1.E-01));
#708 = CARTESIAN_POINT('',(2.039038641736,1.194811638786,0.212199737628)
  );
#709 = CARTESIAN_POINT('',(2.012011397141,1.1584867842,0.333096848632));
#710 = CARTESIAN_POINT('',(1.964625247674,1.089252550543,0.448444796843)
  );
#711 = CARTESIAN_POINT('',(1.904037552982,0.990988487737,0.527691871946)
  );
#712 = CARTESIAN_POINT('',(1.838275424896,0.891714463249,0.575561486473)
  );
#713 = CARTESIAN_POINT('',(1.774077413208,0.787193721282,0.6));
#714 = CARTESIAN_POINT('',(1.7,0.7,0.6));
#715 = CARTESIAN_POINT('',(2.113686730898,1.155940682781,0.1));
#716 = CARTESIAN_POINT('',(2.107671574746,1.164249766159,0.212199737628)
  );
#717 = CARTESIAN_POINT('',(2.079311785109,1.132706769627,0.334836431861)
  );
#718 = CARTESIAN_POINT('',(2.022032575405,1.067020579893,0.452659062129)
  );
#719 = CARTESIAN_POINT('',(1.943553226593,0.973930837271,0.530853974115)
  );
#720 = CARTESIAN_POINT('',(1.861804379872,0.879612952472,0.576548672422)
  );
#721 = CARTESIAN_POINT('',(1.780440666058,0.783501890662,0.6));
#722 = CARTESIAN_POINT('',(1.7,0.7,0.6));
#723 = CARTESIAN_POINT('',(2.155940682781,1.113686730898,1.E-01));
#724 = CARTESIAN_POINT('',(2.164249766159,1.107671574746,0.212199737628)
  );
#725 = CARTESIAN_POINT('',(2.132706769626,1.079311785109,0.334836431861)
  );
#726 = CARTESIAN_POINT('',(2.067020579893,1.022032575405,0.452659062129)
  );
#727 = CARTESIAN_POINT('',(1.973930837271,0.943553226593,0.530853974114)
  );
#728 = CARTESIAN_POINT('',(1.879612952472,0.861804379872,0.576548672422)
  );
#729 = CARTESIAN_POINT('',(1.783501890662,0.780440666058,0.6));
#730 = CARTESIAN_POINT('',(1.7,0.7,0.6));
#731 = CARTESIAN_POINT('',(2.185312777751,1.062199470707,0.1));
#732 = CARTESIAN_POINT('',(2.194811638786,1.039038641736,0.212199737628)
  );
#733 = CARTESIAN_POINT('',(2.1584867842,1.012011397141,0.333096848632));
#734 = CARTESIAN_POINT('',(2.089252550543,0.964625247674,0.448444796843)
  );
#735 = CARTESIAN_POINT('',(1.990988487737,0.904037552982,0.527691871946)
  );
#736 = CARTESIAN_POINT('',(1.891714463249,0.838275424896,0.575561486473)
  );
#737 = CARTESIAN_POINT('',(1.787193721282,0.774077413208,0.6));
#738 = CARTESIAN_POINT('',(1.7,0.7,0.6));
#739 = CARTESIAN_POINT('',(2.2,1.006099866821,1.E-01));
#740 = CARTESIAN_POINT('',(2.204007133344,0.972575396051,0.212199737628)
  );
#741 = CARTESIAN_POINT('',(2.176024239995,0.934854576241,0.329617682176)
  );
#742 = CARTESIAN_POINT('',(2.111466967989,0.892938077524,0.44001626627)
  );
#743 = CARTESIAN_POINT('',(2.0168217725,0.847341050941,0.521367667608));
#744 = CARTESIAN_POINT('',(1.91418633636,0.799105931897,0.573587114573)
  );
#745 = CARTESIAN_POINT('',(1.806375285314,0.749553004717,0.6));
#746 = CARTESIAN_POINT('',(1.7,0.7,0.6));
#747 = CARTESIAN_POINT('',(2.2,0.95,0.1));
#748 = CARTESIAN_POINT('',(2.2,0.914285714286,0.212199737628));
#749 = CARTESIAN_POINT('',(2.170625556724,0.878571428571,0.324398932492)
  );
#750 = CARTESIAN_POINT('',(2.111881361101,0.842857142857,0.427373470411)
  );
#751 = CARTESIAN_POINT('',(2.027373470411,0.807142857143,0.511881361101)
  );
#752 = CARTESIAN_POINT('',(1.924398932492,0.771428571429,0.570625556724)
  );
#753 = CARTESIAN_POINT('',(1.812199737628,0.735714285714,0.6));
#754 = CARTESIAN_POINT('',(1.7,0.7,0.6));
#755 = ( GEOMETRIC_REPRESENTATION_CONTEXT(3) 
GLOBAL_UNCERTAINTY_ASSIGNED_CONTEXT((#759)) GLOBAL_UNIT_ASSIGNED_CONTEXT
((#756,#757,#758)) REPRESENTATION_CONTEXT('Context #1',
  '3D Context with UNIT and UNCERTAINTY') );
#756 = ( LENGTH_UNIT() NAMED_UNIT(*) SI_UNIT(.MILLI.,.METRE.) );
#757 = ( NAMED_UNIT(*) PLANE_ANGLE_UNIT() SI_UNIT($,.RADIAN.) );
#758 = ( NAMED_UNIT(*) SI_UNIT($,.STERADIAN.) SOLID_ANGLE_UNIT() );
#759 = UNCERTAINTY_MEASURE_WITH_UNIT(LENGTH_MEASURE(5.E-05),#756,
  'distance_accuracy_value','confusion accuracy');
#760 = PRODUCT_RELATED_PRODUCT_CATEGORY('part',$,(#7));
#761 = MECHANICAL_DESIGN_GEOMETRIC_PRESENTATION_REPRESENTATION('',(#762)
  ,#755);
#762 = STYLED_ITEM('color',(#763),#15);
#763 = PRESENTATION_STYLE_ASSIGNMENT((#764,#770));
#764 = SURFACE_STYLE_USAGE(.BOTH.,#765);
#765 = SURFACE_SIDE_STYLE('',(#766));
#766 = SURFACE_STYLE_FILL_AREA(#767);
#767 = FILL_AREA_STYLE('',(#768));
#768 = FILL_AREA_STYLE_COLOUR('',#769);
#769 = COLOUR_RGB('',0.800000010877,0.800000010877,0.90196104065);
#770 = CURVE_STYLE('',#771,POSITIVE_LENGTH_MEASURE(0.1),#772);
#771 = DRAUGHTING_PRE_DEFINED_CURVE_FONT('continuous');
#772 = COLOUR_RGB('',9.803921802644E-02,9.803921802644E-02,
  9.803921802644E-02);
ENDSEC;
END-ISO-10303-21;
