ISO-10303-21;
HEADER;
FILE_DESCRIPTION(('FreeCAD Model'),'2;1');
FILE_NAME('Open CASCADE Shape Model','2025-11-25T07:05:31',(''),(''),
  'Open CASCADE STEP processor 7.8','FreeCAD','Unknown');
FILE_SCHEMA((
'AP242_MANAGED_MODEL_BASED_3D_ENGINEERING_MIM_LF. {1 0 10303 442 1 1 4 
}'));
ENDSEC;
DATA;
#1 = APPLICATION_PROTOCOL_DEFINITION('international standard',
  'ap242_managed_model_based_3d_engineering',2013,#2);
#2 = APPLICATION_CONTEXT('Managed model based 3d engineering');
#3 = SHAPE_DEFINITION_REPRESENTATION(#4,#10);
#4 = PRODUCT_DEFINITION_SHAPE('','',#5);
#5 = PRODUCT_DEFINITION('design','',#6,#9);
#6 = PRODUCT_DEFINITION_FORMATION('','',#7);
#7 = PRODUCT('WP-2_IC-Card_BUS_TAP_tray_floor005',
  'WP-2_IC-Card_BUS_TAP_tray_floor005','',(#8));
#8 = PRODUCT_CONTEXT('',#2,'mechanical');
#9 = PRODUCT_DEFINITION_CONTEXT('part definition',#2,'design');
#10 = ADVANCED_BREP_SHAPE_REPRESENTATION('',(#11,#15),#714);
#11 = AXIS2_PLACEMENT_3D('',#12,#13,#14);
#12 = CARTESIAN_POINT('',(0.,0.,0.));
#13 = DIRECTION('',(0.,0.,1.));
#14 = DIRECTION('',(1.,0.,-0.));
#15 = MANIFOLD_SOLID_BREP('',#16);
#16 = CLOSED_SHELL('',(#17,#59,#90,#121,#284,#447,#464,#481,#498,#515,
    #532,#549,#566,#583,#595,#612,#629,#646,#663,#680,#697));
#17 = ADVANCED_FACE('',(#18),#54,.T.);
#18 = FACE_BOUND('',#19,.T.);
#19 = EDGE_LOOP('',(#20,#30,#39,#47));
#20 = ORIENTED_EDGE('',*,*,#21,.T.);
#21 = EDGE_CURVE('',#22,#24,#26,.T.);
#22 = VERTEX_POINT('',#23);
#23 = CARTESIAN_POINT('',(8.880102,29.717999,0.));
#24 = VERTEX_POINT('',#25);
#25 = CARTESIAN_POINT('',(8.880102,29.717999,1.11));
#26 = LINE('',#27,#28);
#27 = CARTESIAN_POINT('',(8.880102,29.717999,0.));
#28 = VECTOR('',#29,1.);
#29 = DIRECTION('',(0.,0.,1.));
#30 = ORIENTED_EDGE('',*,*,#31,.T.);
#31 = EDGE_CURVE('',#24,#32,#34,.T.);
#32 = VERTEX_POINT('',#33);
#33 = CARTESIAN_POINT('',(9.778125,29.346022,1.11));
#34 = CIRCLE('',#35,1.269975616338);
#35 = AXIS2_PLACEMENT_3D('',#36,#37,#38);
#36 = CARTESIAN_POINT('',(8.880106875926,28.448023383671,1.11));
#37 = DIRECTION('',(0.,0.,-1.));
#38 = DIRECTION('',(-3.839385696025E-06,0.999999999993,0.));
#39 = ORIENTED_EDGE('',*,*,#40,.F.);
#40 = EDGE_CURVE('',#41,#32,#43,.T.);
#41 = VERTEX_POINT('',#42);
#42 = CARTESIAN_POINT('',(9.778125,29.346022,0.));
#43 = LINE('',#44,#45);
#44 = CARTESIAN_POINT('',(9.778125,29.346022,0.));
#45 = VECTOR('',#46,1.);
#46 = DIRECTION('',(0.,0.,1.));
#47 = ORIENTED_EDGE('',*,*,#48,.F.);
#48 = EDGE_CURVE('',#22,#41,#49,.T.);
#49 = CIRCLE('',#50,1.269975616338);
#50 = AXIS2_PLACEMENT_3D('',#51,#52,#53);
#51 = CARTESIAN_POINT('',(8.880106875926,28.448023383671,0.));
#52 = DIRECTION('',(0.,0.,-1.));
#53 = DIRECTION('',(-3.839385696025E-06,0.999999999993,0.));
#54 = CYLINDRICAL_SURFACE('',#55,1.269975616338);
#55 = AXIS2_PLACEMENT_3D('',#56,#57,#58);
#56 = CARTESIAN_POINT('',(8.880106875926,28.448023383671,0.));
#57 = DIRECTION('',(0.,0.,-1.));
#58 = DIRECTION('',(-3.839385696025E-06,0.999999999993,0.));
#59 = ADVANCED_FACE('',(#60),#85,.T.);
#60 = FACE_BOUND('',#61,.T.);
#61 = EDGE_LOOP('',(#62,#72,#78,#79));
#62 = ORIENTED_EDGE('',*,*,#63,.T.);
#63 = EDGE_CURVE('',#64,#66,#68,.T.);
#64 = VERTEX_POINT('',#65);
#65 = CARTESIAN_POINT('',(-13.689798,29.717997,0.));
#66 = VERTEX_POINT('',#67);
#67 = CARTESIAN_POINT('',(-13.689798,29.717997,1.11));
#68 = LINE('',#69,#70);
#69 = CARTESIAN_POINT('',(-13.689798,29.717997,0.));
#70 = VECTOR('',#71,1.);
#71 = DIRECTION('',(0.,0.,1.));
#72 = ORIENTED_EDGE('',*,*,#73,.T.);
#73 = EDGE_CURVE('',#66,#24,#74,.T.);
#74 = LINE('',#75,#76);
#75 = CARTESIAN_POINT('',(-13.689798,29.717997,1.11));
#76 = VECTOR('',#77,1.);
#77 = DIRECTION('',(1.,8.861359607512E-08,0.));
#78 = ORIENTED_EDGE('',*,*,#21,.F.);
#79 = ORIENTED_EDGE('',*,*,#80,.F.);
#80 = EDGE_CURVE('',#64,#22,#81,.T.);
#81 = LINE('',#82,#83);
#82 = CARTESIAN_POINT('',(-13.689798,29.717997,0.));
#83 = VECTOR('',#84,1.);
#84 = DIRECTION('',(1.,8.861359607512E-08,0.));
#85 = PLANE('',#86);
#86 = AXIS2_PLACEMENT_3D('',#87,#88,#89);
#87 = CARTESIAN_POINT('',(-13.689798,29.717997,0.));
#88 = DIRECTION('',(-8.861359607512E-08,1.,0.));
#89 = DIRECTION('',(1.,8.861359607512E-08,0.));
#90 = ADVANCED_FACE('',(#91),#116,.T.);
#91 = FACE_BOUND('',#92,.T.);
#92 = EDGE_LOOP('',(#93,#94,#102,#110));
#93 = ORIENTED_EDGE('',*,*,#40,.T.);
#94 = ORIENTED_EDGE('',*,*,#95,.T.);
#95 = EDGE_CURVE('',#32,#96,#98,.T.);
#96 = VERTEX_POINT('',#97);
#97 = CARTESIAN_POINT('',(15.148227,23.975928,1.11));
#98 = LINE('',#99,#100);
#99 = CARTESIAN_POINT('',(9.778125,29.346022,1.11));
#100 = VECTOR('',#101,1.);
#101 = DIRECTION('',(0.707107307886,-0.707106254487,0.));
#102 = ORIENTED_EDGE('',*,*,#103,.F.);
#103 = EDGE_CURVE('',#104,#96,#106,.T.);
#104 = VERTEX_POINT('',#105);
#105 = CARTESIAN_POINT('',(15.148227,23.975928,0.));
#106 = LINE('',#107,#108);
#107 = CARTESIAN_POINT('',(15.148227,23.975928,0.));
#108 = VECTOR('',#109,1.);
#109 = DIRECTION('',(0.,0.,1.));
#110 = ORIENTED_EDGE('',*,*,#111,.F.);
#111 = EDGE_CURVE('',#41,#104,#112,.T.);
#112 = LINE('',#113,#114);
#113 = CARTESIAN_POINT('',(9.778125,29.346022,0.));
#114 = VECTOR('',#115,1.);
#115 = DIRECTION('',(0.707107307886,-0.707106254487,0.));
#116 = PLANE('',#117);
#117 = AXIS2_PLACEMENT_3D('',#118,#119,#120);
#118 = CARTESIAN_POINT('',(9.778125,29.346022,0.));
#119 = DIRECTION('',(0.707106254487,0.707107307886,0.));
#120 = DIRECTION('',(0.707107307886,-0.707106254487,0.));
#121 = ADVANCED_FACE('',(#122,#202,#213,#224,#235,#246,#257,#268),#279,
  .F.);
#122 = FACE_BOUND('',#123,.F.);
#123 = EDGE_LOOP('',(#124,#125,#126,#135,#143,#152,#160,#169,#177,#186,
    #194,#201));
#124 = ORIENTED_EDGE('',*,*,#48,.F.);
#125 = ORIENTED_EDGE('',*,*,#80,.F.);
#126 = ORIENTED_EDGE('',*,*,#127,.F.);
#127 = EDGE_CURVE('',#128,#64,#130,.T.);
#128 = VERTEX_POINT('',#129);
#129 = CARTESIAN_POINT('',(-14.9598,28.447997,0.));
#130 = CIRCLE('',#131,1.269998675657);
#131 = AXIS2_PLACEMENT_3D('',#132,#133,#134);
#132 = CARTESIAN_POINT('',(-13.68980132434,28.447998324347,0.));
#133 = DIRECTION('',(0.,0.,-1.));
#134 = DIRECTION('',(-0.999999999999,-1.042794372908E-06,-0.));
#135 = ORIENTED_EDGE('',*,*,#136,.F.);
#136 = EDGE_CURVE('',#137,#128,#139,.T.);
#137 = VERTEX_POINT('',#138);
#138 = CARTESIAN_POINT('',(-14.9598,-28.448003,0.));
#139 = LINE('',#140,#141);
#140 = CARTESIAN_POINT('',(-14.9598,-28.448003,0.));
#141 = VECTOR('',#142,1.);
#142 = DIRECTION('',(0.,1.,0.));
#143 = ORIENTED_EDGE('',*,*,#144,.F.);
#144 = EDGE_CURVE('',#145,#137,#147,.T.);
#145 = VERTEX_POINT('',#146);
#146 = CARTESIAN_POINT('',(-13.689799,-29.718001,0.));
#147 = CIRCLE('',#148,1.270007211255);
#148 = AXIS2_PLACEMENT_3D('',#149,#150,#151);
#149 = CARTESIAN_POINT('',(-13.68979278877,-28.44799378876,0.));
#150 = DIRECTION('',(0.,0.,-1.));
#151 = DIRECTION('',(-4.890698007683E-06,-0.999999999988,-0.));
#152 = ORIENTED_EDGE('',*,*,#153,.F.);
#153 = EDGE_CURVE('',#154,#145,#156,.T.);
#154 = VERTEX_POINT('',#155);
#155 = CARTESIAN_POINT('',(8.880102,-29.718001,0.));
#156 = LINE('',#157,#158);
#157 = CARTESIAN_POINT('',(8.880102,-29.718001,0.));
#158 = VECTOR('',#159,1.);
#159 = DIRECTION('',(-1.,0.,0.));
#160 = ORIENTED_EDGE('',*,*,#161,.F.);
#161 = EDGE_CURVE('',#162,#154,#164,.T.);
#162 = VERTEX_POINT('',#163);
#163 = CARTESIAN_POINT('',(9.778125,-29.346025,0.));
#164 = CIRCLE('',#165,1.270007331662);
#165 = AXIS2_PLACEMENT_3D('',#166,#167,#168);
#166 = CARTESIAN_POINT('',(8.880094738892,-28.44799366835,0.));
#167 = DIRECTION('',(0.,0.,-1.));
#168 = DIRECTION('',(0.707106359719,-0.707107202654,0.));
#169 = ORIENTED_EDGE('',*,*,#170,.F.);
#170 = EDGE_CURVE('',#171,#162,#173,.T.);
#171 = VERTEX_POINT('',#172);
#172 = CARTESIAN_POINT('',(15.148226,-23.975924,0.));
#173 = LINE('',#174,#175);
#174 = CARTESIAN_POINT('',(15.148226,-23.975924,0.));
#175 = VECTOR('',#176,1.);
#176 = DIRECTION('',(-0.707106781187,-0.707106781187,0.));
#177 = ORIENTED_EDGE('',*,*,#178,.F.);
#178 = EDGE_CURVE('',#179,#171,#181,.T.);
#179 = VERTEX_POINT('',#180);
#180 = CARTESIAN_POINT('',(15.520199,-23.077907,0.));
#181 = CIRCLE('',#182,1.269982184327);
#182 = AXIS2_PLACEMENT_3D('',#183,#184,#185);
#183 = CARTESIAN_POINT('',(14.250216815673,-23.07790715529,0.));
#184 = DIRECTION('',(0.,0.,-1.));
#185 = DIRECTION('',(1.,1.222818989104E-07,0.));
#186 = ORIENTED_EDGE('',*,*,#187,.F.);
#187 = EDGE_CURVE('',#188,#179,#190,.T.);
#188 = VERTEX_POINT('',#189);
#189 = CARTESIAN_POINT('',(15.520199,23.077904,0.));
#190 = LINE('',#191,#192);
#191 = CARTESIAN_POINT('',(15.520199,23.077904,0.));
#192 = VECTOR('',#193,1.);
#193 = DIRECTION('',(0.,-1.,0.));
#194 = ORIENTED_EDGE('',*,*,#195,.F.);
#195 = EDGE_CURVE('',#104,#188,#196,.T.);
#196 = CIRCLE('',#197,1.269958632363);
#197 = AXIS2_PLACEMENT_3D('',#198,#199,#200);
#198 = CARTESIAN_POINT('',(14.250240367763,23.077921910801,0.));
#199 = DIRECTION('',(0.,0.,-1.));
#200 = DIRECTION('',(0.707099120674,0.707114441616,0.));
#201 = ORIENTED_EDGE('',*,*,#111,.F.);
#202 = FACE_BOUND('',#203,.F.);
#203 = EDGE_LOOP('',(#204));
#204 = ORIENTED_EDGE('',*,*,#205,.T.);
#205 = EDGE_CURVE('',#206,#206,#208,.T.);
#206 = VERTEX_POINT('',#207);
#207 = CARTESIAN_POINT('',(-13.689799,-28.9052,0.));
#208 = CIRCLE('',#209,0.4572);
#209 = AXIS2_PLACEMENT_3D('',#210,#211,#212);
#210 = CARTESIAN_POINT('',(-13.689799,-28.448,0.));
#211 = DIRECTION('',(0.,-0.,-1.));
#212 = DIRECTION('',(7.770589848645E-15,-1.,0.));
#213 = FACE_BOUND('',#214,.F.);
#214 = EDGE_LOOP('',(#215));
#215 = ORIENTED_EDGE('',*,*,#216,.T.);
#216 = EDGE_CURVE('',#217,#217,#219,.T.);
#217 = VERTEX_POINT('',#218);
#218 = CARTESIAN_POINT('',(1.550202,-28.905206,0.));
#219 = CIRCLE('',#220,0.4572);
#220 = AXIS2_PLACEMENT_3D('',#221,#222,#223);
#221 = CARTESIAN_POINT('',(1.550202,-28.448006,0.));
#222 = DIRECTION('',(-0.,-0.,-1.));
#223 = DIRECTION('',(0.,-1.,0.));
#224 = FACE_BOUND('',#225,.F.);
#225 = EDGE_LOOP('',(#226));
#226 = ORIENTED_EDGE('',*,*,#227,.T.);
#227 = EDGE_CURVE('',#228,#228,#230,.T.);
#228 = VERTEX_POINT('',#229);
#229 = CARTESIAN_POINT('',(14.250202,-23.571203,0.));
#230 = CIRCLE('',#231,0.4572);
#231 = AXIS2_PLACEMENT_3D('',#232,#233,#234);
#232 = CARTESIAN_POINT('',(14.250202,-23.114003,0.));
#233 = DIRECTION('',(-0.,-0.,-1.));
#234 = DIRECTION('',(0.,-1.,0.));
#235 = FACE_BOUND('',#236,.F.);
#236 = EDGE_LOOP('',(#237));
#237 = ORIENTED_EDGE('',*,*,#238,.T.);
#238 = EDGE_CURVE('',#239,#239,#241,.T.);
#239 = VERTEX_POINT('',#240);
#240 = CARTESIAN_POINT('',(14.250202,-0.457206,0.));
#241 = CIRCLE('',#242,0.4572);
#242 = AXIS2_PLACEMENT_3D('',#243,#244,#245);
#243 = CARTESIAN_POINT('',(14.250202,-5.99999999995E-06,0.));
#244 = DIRECTION('',(-0.,-0.,-1.));
#245 = DIRECTION('',(0.,-1.,0.));
#246 = FACE_BOUND('',#247,.F.);
#247 = EDGE_LOOP('',(#248));
#248 = ORIENTED_EDGE('',*,*,#249,.T.);
#249 = EDGE_CURVE('',#250,#250,#252,.T.);
#250 = VERTEX_POINT('',#251);
#251 = CARTESIAN_POINT('',(-13.689799,27.990798,0.));
#252 = CIRCLE('',#253,0.4572);
#253 = AXIS2_PLACEMENT_3D('',#254,#255,#256);
#254 = CARTESIAN_POINT('',(-13.689799,28.447998,0.));
#255 = DIRECTION('',(0.,-0.,-1.));
#256 = DIRECTION('',(7.770589848645E-15,-1.,0.));
#257 = FACE_BOUND('',#258,.F.);
#258 = EDGE_LOOP('',(#259));
#259 = ORIENTED_EDGE('',*,*,#260,.T.);
#260 = EDGE_CURVE('',#261,#261,#263,.T.);
#261 = VERTEX_POINT('',#262);
#262 = CARTESIAN_POINT('',(1.550202,27.990798,0.));
#263 = CIRCLE('',#264,0.4572);
#264 = AXIS2_PLACEMENT_3D('',#265,#266,#267);
#265 = CARTESIAN_POINT('',(1.550202,28.447998,0.));
#266 = DIRECTION('',(-0.,-0.,-1.));
#267 = DIRECTION('',(0.,-1.,0.));
#268 = FACE_BOUND('',#269,.F.);
#269 = EDGE_LOOP('',(#270));
#270 = ORIENTED_EDGE('',*,*,#271,.T.);
#271 = EDGE_CURVE('',#272,#272,#274,.T.);
#272 = VERTEX_POINT('',#273);
#273 = CARTESIAN_POINT('',(14.250204,22.6568,0.));
#274 = CIRCLE('',#275,0.4572);
#275 = AXIS2_PLACEMENT_3D('',#276,#277,#278);
#276 = CARTESIAN_POINT('',(14.250204,23.114,0.));
#277 = DIRECTION('',(-0.,-0.,-1.));
#278 = DIRECTION('',(0.,-1.,0.));
#279 = PLANE('',#280);
#280 = AXIS2_PLACEMENT_3D('',#281,#282,#283);
#281 = CARTESIAN_POINT('',(-30.5173,1.867,0.));
#282 = DIRECTION('',(0.,0.,1.));
#283 = DIRECTION('',(1.,0.,-0.));
#284 = ADVANCED_FACE('',(#285,#365,#376,#387,#398,#409,#420,#431),#442,
  .T.);
#285 = FACE_BOUND('',#286,.T.);
#286 = EDGE_LOOP('',(#287,#288,#289,#298,#306,#315,#323,#332,#340,#349,
    #357,#364));
#287 = ORIENTED_EDGE('',*,*,#31,.F.);
#288 = ORIENTED_EDGE('',*,*,#73,.F.);
#289 = ORIENTED_EDGE('',*,*,#290,.F.);
#290 = EDGE_CURVE('',#291,#66,#293,.T.);
#291 = VERTEX_POINT('',#292);
#292 = CARTESIAN_POINT('',(-14.9598,28.447997,1.11));
#293 = CIRCLE('',#294,1.269998675657);
#294 = AXIS2_PLACEMENT_3D('',#295,#296,#297);
#295 = CARTESIAN_POINT('',(-13.68980132434,28.447998324347,1.11));
#296 = DIRECTION('',(0.,0.,-1.));
#297 = DIRECTION('',(-0.999999999999,-1.042794372908E-06,-0.));
#298 = ORIENTED_EDGE('',*,*,#299,.F.);
#299 = EDGE_CURVE('',#300,#291,#302,.T.);
#300 = VERTEX_POINT('',#301);
#301 = CARTESIAN_POINT('',(-14.9598,-28.448003,1.11));
#302 = LINE('',#303,#304);
#303 = CARTESIAN_POINT('',(-14.9598,-28.448003,1.11));
#304 = VECTOR('',#305,1.);
#305 = DIRECTION('',(0.,1.,0.));
#306 = ORIENTED_EDGE('',*,*,#307,.F.);
#307 = EDGE_CURVE('',#308,#300,#310,.T.);
#308 = VERTEX_POINT('',#309);
#309 = CARTESIAN_POINT('',(-13.689799,-29.718001,1.11));
#310 = CIRCLE('',#311,1.270007211255);
#311 = AXIS2_PLACEMENT_3D('',#312,#313,#314);
#312 = CARTESIAN_POINT('',(-13.68979278877,-28.44799378876,1.11));
#313 = DIRECTION('',(0.,0.,-1.));
#314 = DIRECTION('',(-4.890698007683E-06,-0.999999999988,-0.));
#315 = ORIENTED_EDGE('',*,*,#316,.F.);
#316 = EDGE_CURVE('',#317,#308,#319,.T.);
#317 = VERTEX_POINT('',#318);
#318 = CARTESIAN_POINT('',(8.880102,-29.718001,1.11));
#319 = LINE('',#320,#321);
#320 = CARTESIAN_POINT('',(8.880102,-29.718001,1.11));
#321 = VECTOR('',#322,1.);
#322 = DIRECTION('',(-1.,0.,0.));
#323 = ORIENTED_EDGE('',*,*,#324,.F.);
#324 = EDGE_CURVE('',#325,#317,#327,.T.);
#325 = VERTEX_POINT('',#326);
#326 = CARTESIAN_POINT('',(9.778125,-29.346025,1.11));
#327 = CIRCLE('',#328,1.270007331662);
#328 = AXIS2_PLACEMENT_3D('',#329,#330,#331);
#329 = CARTESIAN_POINT('',(8.880094738892,-28.44799366835,1.11));
#330 = DIRECTION('',(0.,0.,-1.));
#331 = DIRECTION('',(0.707106359719,-0.707107202654,0.));
#332 = ORIENTED_EDGE('',*,*,#333,.F.);
#333 = EDGE_CURVE('',#334,#325,#336,.T.);
#334 = VERTEX_POINT('',#335);
#335 = CARTESIAN_POINT('',(15.148226,-23.975924,1.11));
#336 = LINE('',#337,#338);
#337 = CARTESIAN_POINT('',(15.148226,-23.975924,1.11));
#338 = VECTOR('',#339,1.);
#339 = DIRECTION('',(-0.707106781187,-0.707106781187,0.));
#340 = ORIENTED_EDGE('',*,*,#341,.F.);
#341 = EDGE_CURVE('',#342,#334,#344,.T.);
#342 = VERTEX_POINT('',#343);
#343 = CARTESIAN_POINT('',(15.520199,-23.077907,1.11));
#344 = CIRCLE('',#345,1.269982184327);
#345 = AXIS2_PLACEMENT_3D('',#346,#347,#348);
#346 = CARTESIAN_POINT('',(14.250216815673,-23.07790715529,1.11));
#347 = DIRECTION('',(0.,0.,-1.));
#348 = DIRECTION('',(1.,1.222818989104E-07,0.));
#349 = ORIENTED_EDGE('',*,*,#350,.F.);
#350 = EDGE_CURVE('',#351,#342,#353,.T.);
#351 = VERTEX_POINT('',#352);
#352 = CARTESIAN_POINT('',(15.520199,23.077904,1.11));
#353 = LINE('',#354,#355);
#354 = CARTESIAN_POINT('',(15.520199,23.077904,1.11));
#355 = VECTOR('',#356,1.);
#356 = DIRECTION('',(0.,-1.,0.));
#357 = ORIENTED_EDGE('',*,*,#358,.F.);
#358 = EDGE_CURVE('',#96,#351,#359,.T.);
#359 = CIRCLE('',#360,1.269958632363);
#360 = AXIS2_PLACEMENT_3D('',#361,#362,#363);
#361 = CARTESIAN_POINT('',(14.250240367763,23.077921910801,1.11));
#362 = DIRECTION('',(0.,0.,-1.));
#363 = DIRECTION('',(0.707099120674,0.707114441616,0.));
#364 = ORIENTED_EDGE('',*,*,#95,.F.);
#365 = FACE_BOUND('',#366,.T.);
#366 = EDGE_LOOP('',(#367));
#367 = ORIENTED_EDGE('',*,*,#368,.T.);
#368 = EDGE_CURVE('',#369,#369,#371,.T.);
#369 = VERTEX_POINT('',#370);
#370 = CARTESIAN_POINT('',(-13.689799,-28.9052,1.11));
#371 = CIRCLE('',#372,0.4572);
#372 = AXIS2_PLACEMENT_3D('',#373,#374,#375);
#373 = CARTESIAN_POINT('',(-13.689799,-28.448,1.11));
#374 = DIRECTION('',(0.,-0.,-1.));
#375 = DIRECTION('',(7.770589848645E-15,-1.,0.));
#376 = FACE_BOUND('',#377,.T.);
#377 = EDGE_LOOP('',(#378));
#378 = ORIENTED_EDGE('',*,*,#379,.T.);
#379 = EDGE_CURVE('',#380,#380,#382,.T.);
#380 = VERTEX_POINT('',#381);
#381 = CARTESIAN_POINT('',(1.550202,-28.905206,1.11));
#382 = CIRCLE('',#383,0.4572);
#383 = AXIS2_PLACEMENT_3D('',#384,#385,#386);
#384 = CARTESIAN_POINT('',(1.550202,-28.448006,1.11));
#385 = DIRECTION('',(-0.,-0.,-1.));
#386 = DIRECTION('',(0.,-1.,0.));
#387 = FACE_BOUND('',#388,.T.);
#388 = EDGE_LOOP('',(#389));
#389 = ORIENTED_EDGE('',*,*,#390,.T.);
#390 = EDGE_CURVE('',#391,#391,#393,.T.);
#391 = VERTEX_POINT('',#392);
#392 = CARTESIAN_POINT('',(14.250202,-23.571203,1.11));
#393 = CIRCLE('',#394,0.4572);
#394 = AXIS2_PLACEMENT_3D('',#395,#396,#397);
#395 = CARTESIAN_POINT('',(14.250202,-23.114003,1.11));
#396 = DIRECTION('',(-0.,-0.,-1.));
#397 = DIRECTION('',(0.,-1.,0.));
#398 = FACE_BOUND('',#399,.T.);
#399 = EDGE_LOOP('',(#400));
#400 = ORIENTED_EDGE('',*,*,#401,.T.);
#401 = EDGE_CURVE('',#402,#402,#404,.T.);
#402 = VERTEX_POINT('',#403);
#403 = CARTESIAN_POINT('',(14.250202,-0.457206,1.11));
#404 = CIRCLE('',#405,0.4572);
#405 = AXIS2_PLACEMENT_3D('',#406,#407,#408);
#406 = CARTESIAN_POINT('',(14.250202,-5.99999999995E-06,1.11));
#407 = DIRECTION('',(-0.,-0.,-1.));
#408 = DIRECTION('',(0.,-1.,0.));
#409 = FACE_BOUND('',#410,.T.);
#410 = EDGE_LOOP('',(#411));
#411 = ORIENTED_EDGE('',*,*,#412,.T.);
#412 = EDGE_CURVE('',#413,#413,#415,.T.);
#413 = VERTEX_POINT('',#414);
#414 = CARTESIAN_POINT('',(-13.689799,27.990798,1.11));
#415 = CIRCLE('',#416,0.4572);
#416 = AXIS2_PLACEMENT_3D('',#417,#418,#419);
#417 = CARTESIAN_POINT('',(-13.689799,28.447998,1.11));
#418 = DIRECTION('',(0.,-0.,-1.));
#419 = DIRECTION('',(7.770589848645E-15,-1.,0.));
#420 = FACE_BOUND('',#421,.T.);
#421 = EDGE_LOOP('',(#422));
#422 = ORIENTED_EDGE('',*,*,#423,.T.);
#423 = EDGE_CURVE('',#424,#424,#426,.T.);
#424 = VERTEX_POINT('',#425);
#425 = CARTESIAN_POINT('',(1.550202,27.990798,1.11));
#426 = CIRCLE('',#427,0.4572);
#427 = AXIS2_PLACEMENT_3D('',#428,#429,#430);
#428 = CARTESIAN_POINT('',(1.550202,28.447998,1.11));
#429 = DIRECTION('',(-0.,-0.,-1.));
#430 = DIRECTION('',(0.,-1.,0.));
#431 = FACE_BOUND('',#432,.T.);
#432 = EDGE_LOOP('',(#433));
#433 = ORIENTED_EDGE('',*,*,#434,.T.);
#434 = EDGE_CURVE('',#435,#435,#437,.T.);
#435 = VERTEX_POINT('',#436);
#436 = CARTESIAN_POINT('',(14.250204,22.6568,1.11));
#437 = CIRCLE('',#438,0.4572);
#438 = AXIS2_PLACEMENT_3D('',#439,#440,#441);
#439 = CARTESIAN_POINT('',(14.250204,23.114,1.11));
#440 = DIRECTION('',(-0.,-0.,-1.));
#441 = DIRECTION('',(0.,-1.,0.));
#442 = PLANE('',#443);
#443 = AXIS2_PLACEMENT_3D('',#444,#445,#446);
#444 = CARTESIAN_POINT('',(-30.5173,1.867,1.11));
#445 = DIRECTION('',(0.,0.,1.));
#446 = DIRECTION('',(1.,0.,-0.));
#447 = ADVANCED_FACE('',(#448),#459,.T.);
#448 = FACE_BOUND('',#449,.T.);
#449 = EDGE_LOOP('',(#450,#456,#457,#458));
#450 = ORIENTED_EDGE('',*,*,#451,.T.);
#451 = EDGE_CURVE('',#128,#291,#452,.T.);
#452 = LINE('',#453,#454);
#453 = CARTESIAN_POINT('',(-14.9598,28.447997,0.));
#454 = VECTOR('',#455,1.);
#455 = DIRECTION('',(0.,0.,1.));
#456 = ORIENTED_EDGE('',*,*,#290,.T.);
#457 = ORIENTED_EDGE('',*,*,#63,.F.);
#458 = ORIENTED_EDGE('',*,*,#127,.F.);
#459 = CYLINDRICAL_SURFACE('',#460,1.269998675657);
#460 = AXIS2_PLACEMENT_3D('',#461,#462,#463);
#461 = CARTESIAN_POINT('',(-13.68980132434,28.447998324347,0.));
#462 = DIRECTION('',(0.,0.,-1.));
#463 = DIRECTION('',(-0.999999999999,-1.042794372908E-06,-0.));
#464 = ADVANCED_FACE('',(#465),#476,.T.);
#465 = FACE_BOUND('',#466,.T.);
#466 = EDGE_LOOP('',(#467,#468,#469,#475));
#467 = ORIENTED_EDGE('',*,*,#103,.T.);
#468 = ORIENTED_EDGE('',*,*,#358,.T.);
#469 = ORIENTED_EDGE('',*,*,#470,.F.);
#470 = EDGE_CURVE('',#188,#351,#471,.T.);
#471 = LINE('',#472,#473);
#472 = CARTESIAN_POINT('',(15.520199,23.077904,0.));
#473 = VECTOR('',#474,1.);
#474 = DIRECTION('',(0.,0.,1.));
#475 = ORIENTED_EDGE('',*,*,#195,.F.);
#476 = CYLINDRICAL_SURFACE('',#477,1.269958632363);
#477 = AXIS2_PLACEMENT_3D('',#478,#479,#480);
#478 = CARTESIAN_POINT('',(14.250240367763,23.077921910801,0.));
#479 = DIRECTION('',(0.,0.,-1.));
#480 = DIRECTION('',(0.707099120674,0.707114441616,0.));
#481 = ADVANCED_FACE('',(#482),#493,.T.);
#482 = FACE_BOUND('',#483,.T.);
#483 = EDGE_LOOP('',(#484,#490,#491,#492));
#484 = ORIENTED_EDGE('',*,*,#485,.T.);
#485 = EDGE_CURVE('',#137,#300,#486,.T.);
#486 = LINE('',#487,#488);
#487 = CARTESIAN_POINT('',(-14.9598,-28.448003,0.));
#488 = VECTOR('',#489,1.);
#489 = DIRECTION('',(0.,0.,1.));
#490 = ORIENTED_EDGE('',*,*,#299,.T.);
#491 = ORIENTED_EDGE('',*,*,#451,.F.);
#492 = ORIENTED_EDGE('',*,*,#136,.F.);
#493 = PLANE('',#494);
#494 = AXIS2_PLACEMENT_3D('',#495,#496,#497);
#495 = CARTESIAN_POINT('',(-14.9598,-28.448003,0.));
#496 = DIRECTION('',(-1.,0.,0.));
#497 = DIRECTION('',(0.,1.,0.));
#498 = ADVANCED_FACE('',(#499),#510,.T.);
#499 = FACE_BOUND('',#500,.T.);
#500 = EDGE_LOOP('',(#501,#502,#503,#509));
#501 = ORIENTED_EDGE('',*,*,#470,.T.);
#502 = ORIENTED_EDGE('',*,*,#350,.T.);
#503 = ORIENTED_EDGE('',*,*,#504,.F.);
#504 = EDGE_CURVE('',#179,#342,#505,.T.);
#505 = LINE('',#506,#507);
#506 = CARTESIAN_POINT('',(15.520199,-23.077907,0.));
#507 = VECTOR('',#508,1.);
#508 = DIRECTION('',(0.,0.,1.));
#509 = ORIENTED_EDGE('',*,*,#187,.F.);
#510 = PLANE('',#511);
#511 = AXIS2_PLACEMENT_3D('',#512,#513,#514);
#512 = CARTESIAN_POINT('',(15.520199,23.077904,0.));
#513 = DIRECTION('',(1.,0.,0.));
#514 = DIRECTION('',(0.,-1.,0.));
#515 = ADVANCED_FACE('',(#516),#527,.T.);
#516 = FACE_BOUND('',#517,.T.);
#517 = EDGE_LOOP('',(#518,#524,#525,#526));
#518 = ORIENTED_EDGE('',*,*,#519,.T.);
#519 = EDGE_CURVE('',#145,#308,#520,.T.);
#520 = LINE('',#521,#522);
#521 = CARTESIAN_POINT('',(-13.689799,-29.718001,0.));
#522 = VECTOR('',#523,1.);
#523 = DIRECTION('',(0.,0.,1.));
#524 = ORIENTED_EDGE('',*,*,#307,.T.);
#525 = ORIENTED_EDGE('',*,*,#485,.F.);
#526 = ORIENTED_EDGE('',*,*,#144,.F.);
#527 = CYLINDRICAL_SURFACE('',#528,1.270007211255);
#528 = AXIS2_PLACEMENT_3D('',#529,#530,#531);
#529 = CARTESIAN_POINT('',(-13.68979278877,-28.44799378876,0.));
#530 = DIRECTION('',(0.,0.,-1.));
#531 = DIRECTION('',(-4.890698007683E-06,-0.999999999988,-0.));
#532 = ADVANCED_FACE('',(#533),#544,.T.);
#533 = FACE_BOUND('',#534,.T.);
#534 = EDGE_LOOP('',(#535,#536,#537,#543));
#535 = ORIENTED_EDGE('',*,*,#504,.T.);
#536 = ORIENTED_EDGE('',*,*,#341,.T.);
#537 = ORIENTED_EDGE('',*,*,#538,.F.);
#538 = EDGE_CURVE('',#171,#334,#539,.T.);
#539 = LINE('',#540,#541);
#540 = CARTESIAN_POINT('',(15.148226,-23.975924,0.));
#541 = VECTOR('',#542,1.);
#542 = DIRECTION('',(0.,0.,1.));
#543 = ORIENTED_EDGE('',*,*,#178,.F.);
#544 = CYLINDRICAL_SURFACE('',#545,1.269982184327);
#545 = AXIS2_PLACEMENT_3D('',#546,#547,#548);
#546 = CARTESIAN_POINT('',(14.250216815673,-23.07790715529,0.));
#547 = DIRECTION('',(0.,0.,-1.));
#548 = DIRECTION('',(1.,1.222818989104E-07,0.));
#549 = ADVANCED_FACE('',(#550),#561,.T.);
#550 = FACE_BOUND('',#551,.T.);
#551 = EDGE_LOOP('',(#552,#558,#559,#560));
#552 = ORIENTED_EDGE('',*,*,#553,.T.);
#553 = EDGE_CURVE('',#154,#317,#554,.T.);
#554 = LINE('',#555,#556);
#555 = CARTESIAN_POINT('',(8.880102,-29.718001,0.));
#556 = VECTOR('',#557,1.);
#557 = DIRECTION('',(0.,0.,1.));
#558 = ORIENTED_EDGE('',*,*,#316,.T.);
#559 = ORIENTED_EDGE('',*,*,#519,.F.);
#560 = ORIENTED_EDGE('',*,*,#153,.F.);
#561 = PLANE('',#562);
#562 = AXIS2_PLACEMENT_3D('',#563,#564,#565);
#563 = CARTESIAN_POINT('',(8.880102,-29.718001,0.));
#564 = DIRECTION('',(0.,-1.,0.));
#565 = DIRECTION('',(-1.,0.,0.));
#566 = ADVANCED_FACE('',(#567),#578,.T.);
#567 = FACE_BOUND('',#568,.T.);
#568 = EDGE_LOOP('',(#569,#570,#571,#577));
#569 = ORIENTED_EDGE('',*,*,#538,.T.);
#570 = ORIENTED_EDGE('',*,*,#333,.T.);
#571 = ORIENTED_EDGE('',*,*,#572,.F.);
#572 = EDGE_CURVE('',#162,#325,#573,.T.);
#573 = LINE('',#574,#575);
#574 = CARTESIAN_POINT('',(9.778125,-29.346025,0.));
#575 = VECTOR('',#576,1.);
#576 = DIRECTION('',(0.,0.,1.));
#577 = ORIENTED_EDGE('',*,*,#170,.F.);
#578 = PLANE('',#579);
#579 = AXIS2_PLACEMENT_3D('',#580,#581,#582);
#580 = CARTESIAN_POINT('',(15.148226,-23.975924,0.));
#581 = DIRECTION('',(0.707106781187,-0.707106781187,0.));
#582 = DIRECTION('',(-0.707106781187,-0.707106781187,0.));
#583 = ADVANCED_FACE('',(#584),#590,.T.);
#584 = FACE_BOUND('',#585,.T.);
#585 = EDGE_LOOP('',(#586,#587,#588,#589));
#586 = ORIENTED_EDGE('',*,*,#572,.T.);
#587 = ORIENTED_EDGE('',*,*,#324,.T.);
#588 = ORIENTED_EDGE('',*,*,#553,.F.);
#589 = ORIENTED_EDGE('',*,*,#161,.F.);
#590 = CYLINDRICAL_SURFACE('',#591,1.270007331662);
#591 = AXIS2_PLACEMENT_3D('',#592,#593,#594);
#592 = CARTESIAN_POINT('',(8.880094738892,-28.44799366835,0.));
#593 = DIRECTION('',(0.,0.,-1.));
#594 = DIRECTION('',(0.707106359719,-0.707107202654,0.));
#595 = ADVANCED_FACE('',(#596),#607,.F.);
#596 = FACE_BOUND('',#597,.F.);
#597 = EDGE_LOOP('',(#598,#604,#605,#606));
#598 = ORIENTED_EDGE('',*,*,#599,.T.);
#599 = EDGE_CURVE('',#206,#369,#600,.T.);
#600 = LINE('',#601,#602);
#601 = CARTESIAN_POINT('',(-13.689799,-28.9052,-4.6E-02));
#602 = VECTOR('',#603,1.);
#603 = DIRECTION('',(0.,0.,1.));
#604 = ORIENTED_EDGE('',*,*,#368,.T.);
#605 = ORIENTED_EDGE('',*,*,#599,.F.);
#606 = ORIENTED_EDGE('',*,*,#205,.F.);
#607 = CYLINDRICAL_SURFACE('',#608,0.4572);
#608 = AXIS2_PLACEMENT_3D('',#609,#610,#611);
#609 = CARTESIAN_POINT('',(-13.689799,-28.448,-4.6E-02));
#610 = DIRECTION('',(0.,0.,-1.));
#611 = DIRECTION('',(7.770589848645E-15,-1.,0.));
#612 = ADVANCED_FACE('',(#613),#624,.F.);
#613 = FACE_BOUND('',#614,.F.);
#614 = EDGE_LOOP('',(#615,#621,#622,#623));
#615 = ORIENTED_EDGE('',*,*,#616,.T.);
#616 = EDGE_CURVE('',#217,#380,#617,.T.);
#617 = LINE('',#618,#619);
#618 = CARTESIAN_POINT('',(1.550202,-28.905206,-4.6E-02));
#619 = VECTOR('',#620,1.);
#620 = DIRECTION('',(0.,0.,1.));
#621 = ORIENTED_EDGE('',*,*,#379,.T.);
#622 = ORIENTED_EDGE('',*,*,#616,.F.);
#623 = ORIENTED_EDGE('',*,*,#216,.F.);
#624 = CYLINDRICAL_SURFACE('',#625,0.4572);
#625 = AXIS2_PLACEMENT_3D('',#626,#627,#628);
#626 = CARTESIAN_POINT('',(1.550202,-28.448006,-4.6E-02));
#627 = DIRECTION('',(-0.,-0.,-1.));
#628 = DIRECTION('',(0.,-1.,0.));
#629 = ADVANCED_FACE('',(#630),#641,.F.);
#630 = FACE_BOUND('',#631,.F.);
#631 = EDGE_LOOP('',(#632,#638,#639,#640));
#632 = ORIENTED_EDGE('',*,*,#633,.T.);
#633 = EDGE_CURVE('',#228,#391,#634,.T.);
#634 = LINE('',#635,#636);
#635 = CARTESIAN_POINT('',(14.250202,-23.571203,-4.6E-02));
#636 = VECTOR('',#637,1.);
#637 = DIRECTION('',(0.,0.,1.));
#638 = ORIENTED_EDGE('',*,*,#390,.T.);
#639 = ORIENTED_EDGE('',*,*,#633,.F.);
#640 = ORIENTED_EDGE('',*,*,#227,.F.);
#641 = CYLINDRICAL_SURFACE('',#642,0.4572);
#642 = AXIS2_PLACEMENT_3D('',#643,#644,#645);
#643 = CARTESIAN_POINT('',(14.250202,-23.114003,-4.6E-02));
#644 = DIRECTION('',(-0.,-0.,-1.));
#645 = DIRECTION('',(0.,-1.,0.));
#646 = ADVANCED_FACE('',(#647),#658,.F.);
#647 = FACE_BOUND('',#648,.F.);
#648 = EDGE_LOOP('',(#649,#655,#656,#657));
#649 = ORIENTED_EDGE('',*,*,#650,.T.);
#650 = EDGE_CURVE('',#239,#402,#651,.T.);
#651 = LINE('',#652,#653);
#652 = CARTESIAN_POINT('',(14.250202,-0.457206,-4.6E-02));
#653 = VECTOR('',#654,1.);
#654 = DIRECTION('',(0.,0.,1.));
#655 = ORIENTED_EDGE('',*,*,#401,.T.);
#656 = ORIENTED_EDGE('',*,*,#650,.F.);
#657 = ORIENTED_EDGE('',*,*,#238,.F.);
#658 = CYLINDRICAL_SURFACE('',#659,0.4572);
#659 = AXIS2_PLACEMENT_3D('',#660,#661,#662);
#660 = CARTESIAN_POINT('',(14.250202,-5.99999999995E-06,-4.6E-02));
#661 = DIRECTION('',(-0.,-0.,-1.));
#662 = DIRECTION('',(0.,-1.,0.));
#663 = ADVANCED_FACE('',(#664),#675,.F.);
#664 = FACE_BOUND('',#665,.F.);
#665 = EDGE_LOOP('',(#666,#672,#673,#674));
#666 = ORIENTED_EDGE('',*,*,#667,.T.);
#667 = EDGE_CURVE('',#250,#413,#668,.T.);
#668 = LINE('',#669,#670);
#669 = CARTESIAN_POINT('',(-13.689799,27.990798,-4.6E-02));
#670 = VECTOR('',#671,1.);
#671 = DIRECTION('',(0.,0.,1.));
#672 = ORIENTED_EDGE('',*,*,#412,.T.);
#673 = ORIENTED_EDGE('',*,*,#667,.F.);
#674 = ORIENTED_EDGE('',*,*,#249,.F.);
#675 = CYLINDRICAL_SURFACE('',#676,0.4572);
#676 = AXIS2_PLACEMENT_3D('',#677,#678,#679);
#677 = CARTESIAN_POINT('',(-13.689799,28.447998,-4.6E-02));
#678 = DIRECTION('',(0.,0.,-1.));
#679 = DIRECTION('',(7.770589848645E-15,-1.,0.));
#680 = ADVANCED_FACE('',(#681),#692,.F.);
#681 = FACE_BOUND('',#682,.F.);
#682 = EDGE_LOOP('',(#683,#689,#690,#691));
#683 = ORIENTED_EDGE('',*,*,#684,.T.);
#684 = EDGE_CURVE('',#261,#424,#685,.T.);
#685 = LINE('',#686,#687);
#686 = CARTESIAN_POINT('',(1.550202,27.990798,-4.6E-02));
#687 = VECTOR('',#688,1.);
#688 = DIRECTION('',(0.,0.,1.));
#689 = ORIENTED_EDGE('',*,*,#423,.T.);
#690 = ORIENTED_EDGE('',*,*,#684,.F.);
#691 = ORIENTED_EDGE('',*,*,#260,.F.);
#692 = CYLINDRICAL_SURFACE('',#693,0.4572);
#693 = AXIS2_PLACEMENT_3D('',#694,#695,#696);
#694 = CARTESIAN_POINT('',(1.550202,28.447998,-4.6E-02));
#695 = DIRECTION('',(-0.,-0.,-1.));
#696 = DIRECTION('',(0.,-1.,0.));
#697 = ADVANCED_FACE('',(#698),#709,.F.);
#698 = FACE_BOUND('',#699,.F.);
#699 = EDGE_LOOP('',(#700,#706,#707,#708));
#700 = ORIENTED_EDGE('',*,*,#701,.T.);
#701 = EDGE_CURVE('',#272,#435,#702,.T.);
#702 = LINE('',#703,#704);
#703 = CARTESIAN_POINT('',(14.250204,22.6568,-4.6E-02));
#704 = VECTOR('',#705,1.);
#705 = DIRECTION('',(0.,0.,1.));
#706 = ORIENTED_EDGE('',*,*,#434,.T.);
#707 = ORIENTED_EDGE('',*,*,#701,.F.);
#708 = ORIENTED_EDGE('',*,*,#271,.F.);
#709 = CYLINDRICAL_SURFACE('',#710,0.4572);
#710 = AXIS2_PLACEMENT_3D('',#711,#712,#713);
#711 = CARTESIAN_POINT('',(14.250204,23.114,-4.6E-02));
#712 = DIRECTION('',(-0.,-0.,-1.));
#713 = DIRECTION('',(0.,-1.,0.));
#714 = ( GEOMETRIC_REPRESENTATION_CONTEXT(3) 
GLOBAL_UNCERTAINTY_ASSIGNED_CONTEXT((#718)) GLOBAL_UNIT_ASSIGNED_CONTEXT
((#715,#716,#717)) REPRESENTATION_CONTEXT('Context #1',
  '3D Context with UNIT and UNCERTAINTY') );
#715 = ( LENGTH_UNIT() NAMED_UNIT(*) SI_UNIT(.MILLI.,.METRE.) );
#716 = ( NAMED_UNIT(*) PLANE_ANGLE_UNIT() SI_UNIT($,.RADIAN.) );
#717 = ( NAMED_UNIT(*) SI_UNIT($,.STERADIAN.) SOLID_ANGLE_UNIT() );
#718 = UNCERTAINTY_MEASURE_WITH_UNIT(LENGTH_MEASURE(1.E-07),#715,
  'distance_accuracy_value','confusion accuracy');
#719 = PRODUCT_RELATED_PRODUCT_CATEGORY('part',$,(#7));
#720 = MECHANICAL_DESIGN_GEOMETRIC_PRESENTATION_REPRESENTATION('',(#721,
    #732,#740,#747,#757,#766,#775,#784,#793,#802),#714);
#721 = STYLED_ITEM('color',(#722),#15);
#722 = PRESENTATION_STYLE_ASSIGNMENT((#723,#729));
#723 = SURFACE_STYLE_USAGE(.BOTH.,#724);
#724 = SURFACE_SIDE_STYLE('',(#725));
#725 = SURFACE_STYLE_FILL_AREA(#726);
#726 = FILL_AREA_STYLE('',(#727));
#727 = FILL_AREA_STYLE_COLOUR('',#728);
#728 = COLOUR_RGB('',0.525490220889,0.435294116471,0.258823539696);
#729 = CURVE_STYLE('',#730,POSITIVE_LENGTH_MEASURE(0.1),#731);
#730 = DRAUGHTING_PRE_DEFINED_CURVE_FONT('continuous');
#731 = COLOUR_RGB('',9.803921802644E-02,9.803921802644E-02,
  9.803921802644E-02);
#732 = OVER_RIDING_STYLED_ITEM('overriding color',(#733),#121,#721);
#733 = PRESENTATION_STYLE_ASSIGNMENT((#734));
#734 = SURFACE_STYLE_USAGE(.BOTH.,#735);
#735 = SURFACE_SIDE_STYLE('',(#736));
#736 = SURFACE_STYLE_FILL_AREA(#737);
#737 = FILL_AREA_STYLE('',(#738));
#738 = FILL_AREA_STYLE_COLOUR('',#739);
#739 = COLOUR_RGB('',0.,0.333333345507,0.);
#740 = OVER_RIDING_STYLED_ITEM('overriding color',(#741),#284,#721);
#741 = PRESENTATION_STYLE_ASSIGNMENT((#742));
#742 = SURFACE_STYLE_USAGE(.BOTH.,#743);
#743 = SURFACE_SIDE_STYLE('',(#744));
#744 = SURFACE_STYLE_FILL_AREA(#745);
#745 = FILL_AREA_STYLE('',(#746));
#746 = FILL_AREA_STYLE_COLOUR('',#739);
#747 = OVER_RIDING_STYLED_ITEM('overriding color',(#748),#595,#721);
#748 = PRESENTATION_STYLE_ASSIGNMENT((#749));
#749 = SURFACE_STYLE_USAGE(.BOTH.,#750);
#750 = SURFACE_SIDE_STYLE('',(#751,#755));
#751 = SURFACE_STYLE_FILL_AREA(#752);
#752 = FILL_AREA_STYLE('',(#753));
#753 = FILL_AREA_STYLE_COLOUR('',#754);
#754 = COLOUR_RGB('',0.89840002001,0.730499980672,0.390599992271);
#755 = SURFACE_STYLE_RENDERING_WITH_PROPERTIES(.NORMAL_SHADING.,#754,(
    #756));
#756 = SURFACE_STYLE_TRANSPARENT(1.);
#757 = OVER_RIDING_STYLED_ITEM('overriding color',(#758),#612,#721);
#758 = PRESENTATION_STYLE_ASSIGNMENT((#759));
#759 = SURFACE_STYLE_USAGE(.BOTH.,#760);
#760 = SURFACE_SIDE_STYLE('',(#761,#764));
#761 = SURFACE_STYLE_FILL_AREA(#762);
#762 = FILL_AREA_STYLE('',(#763));
#763 = FILL_AREA_STYLE_COLOUR('',#754);
#764 = SURFACE_STYLE_RENDERING_WITH_PROPERTIES(.NORMAL_SHADING.,#754,(
    #765));
#765 = SURFACE_STYLE_TRANSPARENT(1.);
#766 = OVER_RIDING_STYLED_ITEM('overriding color',(#767),#629,#721);
#767 = PRESENTATION_STYLE_ASSIGNMENT((#768));
#768 = SURFACE_STYLE_USAGE(.BOTH.,#769);
#769 = SURFACE_SIDE_STYLE('',(#770,#773));
#770 = SURFACE_STYLE_FILL_AREA(#771);
#771 = FILL_AREA_STYLE('',(#772));
#772 = FILL_AREA_STYLE_COLOUR('',#754);
#773 = SURFACE_STYLE_RENDERING_WITH_PROPERTIES(.NORMAL_SHADING.,#754,(
    #774));
#774 = SURFACE_STYLE_TRANSPARENT(1.);
#775 = OVER_RIDING_STYLED_ITEM('overriding color',(#776),#646,#721);
#776 = PRESENTATION_STYLE_ASSIGNMENT((#777));
#777 = SURFACE_STYLE_USAGE(.BOTH.,#778);
#778 = SURFACE_SIDE_STYLE('',(#779,#782));
#779 = SURFACE_STYLE_FILL_AREA(#780);
#780 = FILL_AREA_STYLE('',(#781));
#781 = FILL_AREA_STYLE_COLOUR('',#754);
#782 = SURFACE_STYLE_RENDERING_WITH_PROPERTIES(.NORMAL_SHADING.,#754,(
    #783));
#783 = SURFACE_STYLE_TRANSPARENT(1.);
#784 = OVER_RIDING_STYLED_ITEM('overriding color',(#785),#663,#721);
#785 = PRESENTATION_STYLE_ASSIGNMENT((#786));
#786 = SURFACE_STYLE_USAGE(.BOTH.,#787);
#787 = SURFACE_SIDE_STYLE('',(#788,#791));
#788 = SURFACE_STYLE_FILL_AREA(#789);
#789 = FILL_AREA_STYLE('',(#790));
#790 = FILL_AREA_STYLE_COLOUR('',#754);
#791 = SURFACE_STYLE_RENDERING_WITH_PROPERTIES(.NORMAL_SHADING.,#754,(
    #792));
#792 = SURFACE_STYLE_TRANSPARENT(1.);
#793 = OVER_RIDING_STYLED_ITEM('overriding color',(#794),#680,#721);
#794 = PRESENTATION_STYLE_ASSIGNMENT((#795));
#795 = SURFACE_STYLE_USAGE(.BOTH.,#796);
#796 = SURFACE_SIDE_STYLE('',(#797,#800));
#797 = SURFACE_STYLE_FILL_AREA(#798);
#798 = FILL_AREA_STYLE('',(#799));
#799 = FILL_AREA_STYLE_COLOUR('',#754);
#800 = SURFACE_STYLE_RENDERING_WITH_PROPERTIES(.NORMAL_SHADING.,#754,(
    #801));
#801 = SURFACE_STYLE_TRANSPARENT(1.);
#802 = OVER_RIDING_STYLED_ITEM('overriding color',(#803),#697,#721);
#803 = PRESENTATION_STYLE_ASSIGNMENT((#804));
#804 = SURFACE_STYLE_USAGE(.BOTH.,#805);
#805 = SURFACE_SIDE_STYLE('',(#806,#809));
#806 = SURFACE_STYLE_FILL_AREA(#807);
#807 = FILL_AREA_STYLE('',(#808));
#808 = FILL_AREA_STYLE_COLOUR('',#754);
#809 = SURFACE_STYLE_RENDERING_WITH_PROPERTIES(.NORMAL_SHADING.,#754,(
    #810));
#810 = SURFACE_STYLE_TRANSPARENT(1.);
ENDSEC;
END-ISO-10303-21;
