ISO-10303-21;
HEADER;
FILE_DESCRIPTION(('KiCad electronic assembly'),'2;1');
FILE_NAME('programming_adapter_horizontal_floor.step',
  '2025-10-17T12:34:19',('Pcbnew'),('Kicad'),
  'Open CASCADE STEP processor 7.6','KiCad to STEP converter','Unknown'
  );
FILE_SCHEMA(('AUTOMOTIVE_DESIGN { 1 0 10303 214 1 1 1 1 }'));
ENDSEC;
DATA;
#1 = APPLICATION_PROTOCOL_DEFINITION('international standard',
  'automotive_design',2000,#2);
#2 = APPLICATION_CONTEXT(
  'core data for automotive mechanical design processes');
#3 = SHAPE_DEFINITION_REPRESENTATION(#4,#10);
#4 = PRODUCT_DEFINITION_SHAPE('','',#5);
#5 = PRODUCT_DEFINITION('design','',#6,#9);
#6 = PRODUCT_DEFINITION_FORMATION('','',#7);
#7 = PRODUCT('programming_adapter_horizontal_floor 1',
  'programming_adapter_horizontal_floor 1','',(#8));
#8 = PRODUCT_CONTEXT('',#2,'mechanical');
#9 = PRODUCT_DEFINITION_CONTEXT('part definition',#2,'design');
#10 = SHAPE_REPRESENTATION('',(#11,#15),#19);
#11 = AXIS2_PLACEMENT_3D('',#12,#13,#14);
#12 = CARTESIAN_POINT('',(0.,0.,0.));
#13 = DIRECTION('',(0.,0.,1.));
#14 = DIRECTION('',(1.,0.,-0.));
#15 = AXIS2_PLACEMENT_3D('',#16,#17,#18);
#16 = CARTESIAN_POINT('',(0.,0.,0.));
#17 = DIRECTION('',(0.,0.,1.));
#18 = DIRECTION('',(1.,0.,-0.));
#19 = ( GEOMETRIC_REPRESENTATION_CONTEXT(3) 
GLOBAL_UNCERTAINTY_ASSIGNED_CONTEXT((#23)) GLOBAL_UNIT_ASSIGNED_CONTEXT(
(#20,#21,#22)) REPRESENTATION_CONTEXT('Context #1',
  '3D Context with UNIT and UNCERTAINTY') );
#20 = ( LENGTH_UNIT() NAMED_UNIT(*) SI_UNIT(.MILLI.,.METRE.) );
#21 = ( NAMED_UNIT(*) PLANE_ANGLE_UNIT() SI_UNIT($,.RADIAN.) );
#22 = ( NAMED_UNIT(*) SI_UNIT($,.STERADIAN.) SOLID_ANGLE_UNIT() );
#23 = UNCERTAINTY_MEASURE_WITH_UNIT(LENGTH_MEASURE(1.E-07),#20,
  'distance_accuracy_value','confusion accuracy');
#24 = PRODUCT_RELATED_PRODUCT_CATEGORY('part',$,(#7));
#25 = SHAPE_DEFINITION_REPRESENTATION(#26,#32);
#26 = PRODUCT_DEFINITION_SHAPE('','',#27);
#27 = PRODUCT_DEFINITION('design','',#28,#31);
#28 = PRODUCT_DEFINITION_FORMATION('','',#29);
#29 = PRODUCT('WP-2_IC-Card_Programming-Adapter_Horizontal_Floor_PCB',
  'WP-2_IC-Card_Programming-Adapter_Horizontal_Floor_PCB','',(#30));
#30 = PRODUCT_CONTEXT('',#2,'mechanical');
#31 = PRODUCT_DEFINITION_CONTEXT('part definition',#2,'design');
#32 = ADVANCED_BREP_SHAPE_REPRESENTATION('',(#11,#33),#732);
#33 = MANIFOLD_SOLID_BREP('',#34);
#34 = CLOSED_SHELL('',(#35,#77,#108,#139,#302,#465,#482,#499,#516,#533,
    #550,#567,#584,#601,#613,#630,#647,#664,#681,#698,#715));
#35 = ADVANCED_FACE('',(#36),#72,.T.);
#36 = FACE_BOUND('',#37,.T.);
#37 = EDGE_LOOP('',(#38,#48,#57,#65));
#38 = ORIENTED_EDGE('',*,*,#39,.T.);
#39 = EDGE_CURVE('',#40,#42,#44,.T.);
#40 = VERTEX_POINT('',#41);
#41 = CARTESIAN_POINT('',(28.447999,15.24,0.));
#42 = VERTEX_POINT('',#43);
#43 = CARTESIAN_POINT('',(28.447999,15.24,1.51));
#44 = LINE('',#45,#46);
#45 = CARTESIAN_POINT('',(28.447999,15.24,0.));
#46 = VECTOR('',#47,1.);
#47 = DIRECTION('',(0.,0.,1.));
#48 = ORIENTED_EDGE('',*,*,#49,.T.);
#49 = EDGE_CURVE('',#42,#50,#52,.T.);
#50 = VERTEX_POINT('',#51);
#51 = CARTESIAN_POINT('',(29.717999,13.97,1.51));
#52 = CIRCLE('',#53,1.270000382757);
#53 = AXIS2_PLACEMENT_3D('',#54,#55,#56);
#54 = CARTESIAN_POINT('',(28.447998617243,13.969999617243,1.51));
#55 = DIRECTION('',(0.,0.,-1.));
#56 = DIRECTION('',(3.01383069766E-07,1.,0.));
#57 = ORIENTED_EDGE('',*,*,#58,.F.);
#58 = EDGE_CURVE('',#59,#50,#61,.T.);
#59 = VERTEX_POINT('',#60);
#60 = CARTESIAN_POINT('',(29.717999,13.97,0.));
#61 = LINE('',#62,#63);
#62 = CARTESIAN_POINT('',(29.717999,13.97,0.));
#63 = VECTOR('',#64,1.);
#64 = DIRECTION('',(0.,0.,1.));
#65 = ORIENTED_EDGE('',*,*,#66,.F.);
#66 = EDGE_CURVE('',#40,#59,#67,.T.);
#67 = CIRCLE('',#68,1.270000382757);
#68 = AXIS2_PLACEMENT_3D('',#69,#70,#71);
#69 = CARTESIAN_POINT('',(28.447998617243,13.969999617243,0.));
#70 = DIRECTION('',(0.,0.,-1.));
#71 = DIRECTION('',(3.01383069766E-07,1.,0.));
#72 = CYLINDRICAL_SURFACE('',#73,1.270000382757);
#73 = AXIS2_PLACEMENT_3D('',#74,#75,#76);
#74 = CARTESIAN_POINT('',(28.447998617243,13.969999617243,0.));
#75 = DIRECTION('',(0.,0.,-1.));
#76 = DIRECTION('',(3.01383069766E-07,1.,0.));
#77 = ADVANCED_FACE('',(#78),#103,.T.);
#78 = FACE_BOUND('',#79,.T.);
#79 = EDGE_LOOP('',(#80,#90,#96,#97));
#80 = ORIENTED_EDGE('',*,*,#81,.T.);
#81 = EDGE_CURVE('',#82,#84,#86,.T.);
#82 = VERTEX_POINT('',#83);
#83 = CARTESIAN_POINT('',(-28.448001,15.24,0.));
#84 = VERTEX_POINT('',#85);
#85 = CARTESIAN_POINT('',(-28.448001,15.24,1.51));
#86 = LINE('',#87,#88);
#87 = CARTESIAN_POINT('',(-28.448001,15.24,0.));
#88 = VECTOR('',#89,1.);
#89 = DIRECTION('',(0.,0.,1.));
#90 = ORIENTED_EDGE('',*,*,#91,.T.);
#91 = EDGE_CURVE('',#84,#42,#92,.T.);
#92 = LINE('',#93,#94);
#93 = CARTESIAN_POINT('',(-28.448001,15.24,1.51));
#94 = VECTOR('',#95,1.);
#95 = DIRECTION('',(1.,0.,0.));
#96 = ORIENTED_EDGE('',*,*,#39,.F.);
#97 = ORIENTED_EDGE('',*,*,#98,.F.);
#98 = EDGE_CURVE('',#82,#40,#99,.T.);
#99 = LINE('',#100,#101);
#100 = CARTESIAN_POINT('',(-28.448001,15.24,0.));
#101 = VECTOR('',#102,1.);
#102 = DIRECTION('',(1.,0.,0.));
#103 = PLANE('',#104);
#104 = AXIS2_PLACEMENT_3D('',#105,#106,#107);
#105 = CARTESIAN_POINT('',(-28.448001,15.24,0.));
#106 = DIRECTION('',(0.,1.,0.));
#107 = DIRECTION('',(1.,0.,0.));
#108 = ADVANCED_FACE('',(#109),#134,.T.);
#109 = FACE_BOUND('',#110,.T.);
#110 = EDGE_LOOP('',(#111,#112,#120,#128));
#111 = ORIENTED_EDGE('',*,*,#58,.T.);
#112 = ORIENTED_EDGE('',*,*,#113,.T.);
#113 = EDGE_CURVE('',#50,#114,#116,.T.);
#114 = VERTEX_POINT('',#115);
#115 = CARTESIAN_POINT('',(29.717999,-8.5999,1.51));
#116 = LINE('',#117,#118);
#117 = CARTESIAN_POINT('',(29.717999,13.97,1.51));
#118 = VECTOR('',#119,1.);
#119 = DIRECTION('',(0.,-1.,0.));
#120 = ORIENTED_EDGE('',*,*,#121,.F.);
#121 = EDGE_CURVE('',#122,#114,#124,.T.);
#122 = VERTEX_POINT('',#123);
#123 = CARTESIAN_POINT('',(29.717999,-8.5999,0.));
#124 = LINE('',#125,#126);
#125 = CARTESIAN_POINT('',(29.717999,-8.5999,0.));
#126 = VECTOR('',#127,1.);
#127 = DIRECTION('',(0.,0.,1.));
#128 = ORIENTED_EDGE('',*,*,#129,.F.);
#129 = EDGE_CURVE('',#59,#122,#130,.T.);
#130 = LINE('',#131,#132);
#131 = CARTESIAN_POINT('',(29.717999,13.97,0.));
#132 = VECTOR('',#133,1.);
#133 = DIRECTION('',(0.,-1.,0.));
#134 = PLANE('',#135);
#135 = AXIS2_PLACEMENT_3D('',#136,#137,#138);
#136 = CARTESIAN_POINT('',(29.717999,13.97,0.));
#137 = DIRECTION('',(1.,0.,-0.));
#138 = DIRECTION('',(0.,-1.,0.));
#139 = ADVANCED_FACE('',(#140,#220,#231,#242,#253,#264,#275,#286),#297,
  .F.);
#140 = FACE_BOUND('',#141,.F.);
#141 = EDGE_LOOP('',(#142,#143,#144,#153,#161,#170,#178,#187,#195,#204,
    #212,#219));
#142 = ORIENTED_EDGE('',*,*,#66,.F.);
#143 = ORIENTED_EDGE('',*,*,#98,.F.);
#144 = ORIENTED_EDGE('',*,*,#145,.F.);
#145 = EDGE_CURVE('',#146,#82,#148,.T.);
#146 = VERTEX_POINT('',#147);
#147 = CARTESIAN_POINT('',(-29.717998,13.97,0.));
#148 = CIRCLE('',#149,1.270003797007);
#149 = AXIS2_PLACEMENT_3D('',#150,#151,#152);
#150 = CARTESIAN_POINT('',(-28.44799420299,13.969996203011,0.));
#151 = DIRECTION('',(0.,0.,-1.));
#152 = DIRECTION('',(-0.999999999996,2.989746013445E-06,0.));
#153 = ORIENTED_EDGE('',*,*,#154,.F.);
#154 = EDGE_CURVE('',#155,#146,#157,.T.);
#155 = VERTEX_POINT('',#156);
#156 = CARTESIAN_POINT('',(-29.717998,-8.5999,0.));
#157 = LINE('',#158,#159);
#158 = CARTESIAN_POINT('',(-29.717998,-8.5999,0.));
#159 = VECTOR('',#160,1.);
#160 = DIRECTION('',(0.,1.,0.));
#161 = ORIENTED_EDGE('',*,*,#162,.F.);
#162 = EDGE_CURVE('',#163,#155,#165,.T.);
#163 = VERTEX_POINT('',#164);
#164 = CARTESIAN_POINT('',(-29.346023,-9.497926,0.));
#165 = CIRCLE('',#166,1.269987626141);
#166 = AXIS2_PLACEMENT_3D('',#167,#168,#169);
#167 = CARTESIAN_POINT('',(-28.44801037386,-8.599904901217,0.));
#168 = DIRECTION('',(0.,0.,-1.));
#169 = DIRECTION('',(-0.707103445457,-0.707110116901,-0.));
#170 = ORIENTED_EDGE('',*,*,#171,.F.);
#171 = EDGE_CURVE('',#172,#163,#174,.T.);
#172 = VERTEX_POINT('',#173);
#173 = CARTESIAN_POINT('',(-23.975923,-14.868024,0.));
#174 = LINE('',#175,#176);
#175 = CARTESIAN_POINT('',(-23.975923,-14.868024,0.));
#176 = VECTOR('',#177,1.);
#177 = DIRECTION('',(-0.707106912861,0.707106649512,0.));
#178 = ORIENTED_EDGE('',*,*,#179,.F.);
#179 = EDGE_CURVE('',#180,#172,#182,.T.);
#180 = VERTEX_POINT('',#181);
#181 = CARTESIAN_POINT('',(-23.077905,-15.24,0.));
#182 = CIRCLE('',#183,1.269945825794);
#183 = AXIS2_PLACEMENT_3D('',#184,#185,#186);
#184 = CARTESIAN_POINT('',(-23.07791821574,-13.97005417427,0.));
#185 = DIRECTION('',(0.,0.,-1.));
#186 = DIRECTION('',(1.04065450741E-05,-0.999999999946,0.));
#187 = ORIENTED_EDGE('',*,*,#188,.F.);
#188 = EDGE_CURVE('',#189,#180,#191,.T.);
#189 = VERTEX_POINT('',#190);
#190 = CARTESIAN_POINT('',(23.077906,-15.24,0.));
#191 = LINE('',#192,#193);
#192 = CARTESIAN_POINT('',(23.077906,-15.24,0.));
#193 = VECTOR('',#194,1.);
#194 = DIRECTION('',(-1.,0.,0.));
#195 = ORIENTED_EDGE('',*,*,#196,.F.);
#196 = EDGE_CURVE('',#197,#189,#199,.T.);
#197 = VERTEX_POINT('',#198);
#198 = CARTESIAN_POINT('',(23.975924,-14.868026,0.));
#199 = CIRCLE('',#200,1.269955114379);
#200 = AXIS2_PLACEMENT_3D('',#201,#202,#203);
#201 = CARTESIAN_POINT('',(23.07791736815,-13.97004488567,0.));
#202 = DIRECTION('',(0.,0.,-1.));
#203 = DIRECTION('',(0.707116827739,-0.707096734491,0.));
#204 = ORIENTED_EDGE('',*,*,#205,.F.);
#205 = EDGE_CURVE('',#206,#197,#208,.T.);
#206 = VERTEX_POINT('',#207);
#207 = CARTESIAN_POINT('',(29.346024,-9.497926,0.));
#208 = LINE('',#209,#210);
#209 = CARTESIAN_POINT('',(29.346024,-9.497926,0.));
#210 = VECTOR('',#211,1.);
#211 = DIRECTION('',(-0.707106781187,-0.707106781187,0.));
#212 = ORIENTED_EDGE('',*,*,#213,.F.);
#213 = EDGE_CURVE('',#122,#206,#214,.T.);
#214 = CIRCLE('',#215,1.269998839183);
#215 = AXIS2_PLACEMENT_3D('',#216,#217,#218);
#216 = CARTESIAN_POINT('',(28.448000160817,-8.599900256613,0.));
#217 = DIRECTION('',(0.,0.,-1.));
#218 = DIRECTION('',(1.,2.020580546853E-07,0.));
#219 = ORIENTED_EDGE('',*,*,#129,.F.);
#220 = FACE_BOUND('',#221,.F.);
#221 = EDGE_LOOP('',(#222));
#222 = ORIENTED_EDGE('',*,*,#223,.T.);
#223 = EDGE_CURVE('',#224,#224,#226,.T.);
#224 = VERTEX_POINT('',#225);
#225 = CARTESIAN_POINT('',(-23.114001,-14.4272,0.));
#226 = CIRCLE('',#227,0.4572);
#227 = AXIS2_PLACEMENT_3D('',#228,#229,#230);
#228 = CARTESIAN_POINT('',(-23.114001,-13.97,0.));
#229 = DIRECTION('',(-0.,0.,-1.));
#230 = DIRECTION('',(7.770589848645E-15,-1.,-0.));
#231 = FACE_BOUND('',#232,.F.);
#232 = EDGE_LOOP('',(#233));
#233 = ORIENTED_EDGE('',*,*,#234,.T.);
#234 = EDGE_CURVE('',#235,#235,#237,.T.);
#235 = VERTEX_POINT('',#236);
#236 = CARTESIAN_POINT('',(-28.448001,-1.7272,0.));
#237 = CIRCLE('',#238,0.4572);
#238 = AXIS2_PLACEMENT_3D('',#239,#240,#241);
#239 = CARTESIAN_POINT('',(-28.448001,-1.27,0.));
#240 = DIRECTION('',(-0.,0.,-1.));
#241 = DIRECTION('',(-0.,-1.,0.));
#242 = FACE_BOUND('',#243,.F.);
#243 = EDGE_LOOP('',(#244));
#244 = ORIENTED_EDGE('',*,*,#245,.T.);
#245 = EDGE_CURVE('',#246,#246,#248,.T.);
#246 = VERTEX_POINT('',#247);
#247 = CARTESIAN_POINT('',(-1.E-06,-14.4272,0.));
#248 = CIRCLE('',#249,0.4572);
#249 = AXIS2_PLACEMENT_3D('',#250,#251,#252);
#250 = CARTESIAN_POINT('',(-1.000000000001E-06,-13.97,0.));
#251 = DIRECTION('',(-0.,0.,-1.));
#252 = DIRECTION('',(2.187520018527E-18,-1.,-0.));
#253 = FACE_BOUND('',#254,.F.);
#254 = EDGE_LOOP('',(#255));
#255 = ORIENTED_EDGE('',*,*,#256,.T.);
#256 = EDGE_CURVE('',#257,#257,#259,.T.);
#257 = VERTEX_POINT('',#258);
#258 = CARTESIAN_POINT('',(23.113999,-14.4272,0.));
#259 = CIRCLE('',#260,0.4572);
#260 = AXIS2_PLACEMENT_3D('',#261,#262,#263);
#261 = CARTESIAN_POINT('',(23.113999,-13.97,0.));
#262 = DIRECTION('',(-0.,0.,-1.));
#263 = DIRECTION('',(-0.,-1.,0.));
#264 = FACE_BOUND('',#265,.F.);
#265 = EDGE_LOOP('',(#266));
#266 = ORIENTED_EDGE('',*,*,#267,.T.);
#267 = EDGE_CURVE('',#268,#268,#270,.T.);
#268 = VERTEX_POINT('',#269);
#269 = CARTESIAN_POINT('',(28.447999,-1.7272,0.));
#270 = CIRCLE('',#271,0.4572);
#271 = AXIS2_PLACEMENT_3D('',#272,#273,#274);
#272 = CARTESIAN_POINT('',(28.447999,-1.27,0.));
#273 = DIRECTION('',(-0.,0.,-1.));
#274 = DIRECTION('',(-0.,-1.,0.));
#275 = FACE_BOUND('',#276,.F.);
#276 = EDGE_LOOP('',(#277));
#277 = ORIENTED_EDGE('',*,*,#278,.T.);
#278 = EDGE_CURVE('',#279,#279,#281,.T.);
#279 = VERTEX_POINT('',#280);
#280 = CARTESIAN_POINT('',(-28.448001,13.5128,0.));
#281 = CIRCLE('',#282,0.4572);
#282 = AXIS2_PLACEMENT_3D('',#283,#284,#285);
#283 = CARTESIAN_POINT('',(-28.448001,13.97,0.));
#284 = DIRECTION('',(-0.,0.,-1.));
#285 = DIRECTION('',(-0.,-1.,0.));
#286 = FACE_BOUND('',#287,.F.);
#287 = EDGE_LOOP('',(#288));
#288 = ORIENTED_EDGE('',*,*,#289,.T.);
#289 = EDGE_CURVE('',#290,#290,#292,.T.);
#290 = VERTEX_POINT('',#291);
#291 = CARTESIAN_POINT('',(28.447999,13.5128,0.));
#292 = CIRCLE('',#293,0.4572);
#293 = AXIS2_PLACEMENT_3D('',#294,#295,#296);
#294 = CARTESIAN_POINT('',(28.447999,13.97,0.));
#295 = DIRECTION('',(-0.,0.,-1.));
#296 = DIRECTION('',(-0.,-1.,0.));
#297 = PLANE('',#298);
#298 = AXIS2_PLACEMENT_3D('',#299,#300,#301);
#299 = CARTESIAN_POINT('',(0.,0.,0.));
#300 = DIRECTION('',(0.,0.,1.));
#301 = DIRECTION('',(1.,0.,-0.));
#302 = ADVANCED_FACE('',(#303,#383,#394,#405,#416,#427,#438,#449),#460,
  .T.);
#303 = FACE_BOUND('',#304,.T.);
#304 = EDGE_LOOP('',(#305,#306,#307,#316,#324,#333,#341,#350,#358,#367,
    #375,#382));
#305 = ORIENTED_EDGE('',*,*,#49,.F.);
#306 = ORIENTED_EDGE('',*,*,#91,.F.);
#307 = ORIENTED_EDGE('',*,*,#308,.F.);
#308 = EDGE_CURVE('',#309,#84,#311,.T.);
#309 = VERTEX_POINT('',#310);
#310 = CARTESIAN_POINT('',(-29.717998,13.97,1.51));
#311 = CIRCLE('',#312,1.270003797007);
#312 = AXIS2_PLACEMENT_3D('',#313,#314,#315);
#313 = CARTESIAN_POINT('',(-28.44799420299,13.969996203011,1.51));
#314 = DIRECTION('',(0.,0.,-1.));
#315 = DIRECTION('',(-0.999999999996,2.989746013445E-06,0.));
#316 = ORIENTED_EDGE('',*,*,#317,.F.);
#317 = EDGE_CURVE('',#318,#309,#320,.T.);
#318 = VERTEX_POINT('',#319);
#319 = CARTESIAN_POINT('',(-29.717998,-8.5999,1.51));
#320 = LINE('',#321,#322);
#321 = CARTESIAN_POINT('',(-29.717998,-8.5999,1.51));
#322 = VECTOR('',#323,1.);
#323 = DIRECTION('',(0.,1.,0.));
#324 = ORIENTED_EDGE('',*,*,#325,.F.);
#325 = EDGE_CURVE('',#326,#318,#328,.T.);
#326 = VERTEX_POINT('',#327);
#327 = CARTESIAN_POINT('',(-29.346023,-9.497926,1.51));
#328 = CIRCLE('',#329,1.269987626141);
#329 = AXIS2_PLACEMENT_3D('',#330,#331,#332);
#330 = CARTESIAN_POINT('',(-28.44801037386,-8.599904901217,1.51));
#331 = DIRECTION('',(0.,0.,-1.));
#332 = DIRECTION('',(-0.707103445457,-0.707110116901,-0.));
#333 = ORIENTED_EDGE('',*,*,#334,.F.);
#334 = EDGE_CURVE('',#335,#326,#337,.T.);
#335 = VERTEX_POINT('',#336);
#336 = CARTESIAN_POINT('',(-23.975923,-14.868024,1.51));
#337 = LINE('',#338,#339);
#338 = CARTESIAN_POINT('',(-23.975923,-14.868024,1.51));
#339 = VECTOR('',#340,1.);
#340 = DIRECTION('',(-0.707106912861,0.707106649512,0.));
#341 = ORIENTED_EDGE('',*,*,#342,.F.);
#342 = EDGE_CURVE('',#343,#335,#345,.T.);
#343 = VERTEX_POINT('',#344);
#344 = CARTESIAN_POINT('',(-23.077905,-15.24,1.51));
#345 = CIRCLE('',#346,1.269945825794);
#346 = AXIS2_PLACEMENT_3D('',#347,#348,#349);
#347 = CARTESIAN_POINT('',(-23.07791821574,-13.97005417427,1.51));
#348 = DIRECTION('',(0.,0.,-1.));
#349 = DIRECTION('',(1.04065450741E-05,-0.999999999946,0.));
#350 = ORIENTED_EDGE('',*,*,#351,.F.);
#351 = EDGE_CURVE('',#352,#343,#354,.T.);
#352 = VERTEX_POINT('',#353);
#353 = CARTESIAN_POINT('',(23.077906,-15.24,1.51));
#354 = LINE('',#355,#356);
#355 = CARTESIAN_POINT('',(23.077906,-15.24,1.51));
#356 = VECTOR('',#357,1.);
#357 = DIRECTION('',(-1.,0.,0.));
#358 = ORIENTED_EDGE('',*,*,#359,.F.);
#359 = EDGE_CURVE('',#360,#352,#362,.T.);
#360 = VERTEX_POINT('',#361);
#361 = CARTESIAN_POINT('',(23.975924,-14.868026,1.51));
#362 = CIRCLE('',#363,1.269955114379);
#363 = AXIS2_PLACEMENT_3D('',#364,#365,#366);
#364 = CARTESIAN_POINT('',(23.07791736815,-13.97004488567,1.51));
#365 = DIRECTION('',(0.,0.,-1.));
#366 = DIRECTION('',(0.707116827739,-0.707096734491,0.));
#367 = ORIENTED_EDGE('',*,*,#368,.F.);
#368 = EDGE_CURVE('',#369,#360,#371,.T.);
#369 = VERTEX_POINT('',#370);
#370 = CARTESIAN_POINT('',(29.346024,-9.497926,1.51));
#371 = LINE('',#372,#373);
#372 = CARTESIAN_POINT('',(29.346024,-9.497926,1.51));
#373 = VECTOR('',#374,1.);
#374 = DIRECTION('',(-0.707106781187,-0.707106781187,0.));
#375 = ORIENTED_EDGE('',*,*,#376,.F.);
#376 = EDGE_CURVE('',#114,#369,#377,.T.);
#377 = CIRCLE('',#378,1.269998839183);
#378 = AXIS2_PLACEMENT_3D('',#379,#380,#381);
#379 = CARTESIAN_POINT('',(28.448000160817,-8.599900256613,1.51));
#380 = DIRECTION('',(0.,0.,-1.));
#381 = DIRECTION('',(1.,2.020580546853E-07,0.));
#382 = ORIENTED_EDGE('',*,*,#113,.F.);
#383 = FACE_BOUND('',#384,.T.);
#384 = EDGE_LOOP('',(#385));
#385 = ORIENTED_EDGE('',*,*,#386,.T.);
#386 = EDGE_CURVE('',#387,#387,#389,.T.);
#387 = VERTEX_POINT('',#388);
#388 = CARTESIAN_POINT('',(-23.114001,-14.4272,1.51));
#389 = CIRCLE('',#390,0.4572);
#390 = AXIS2_PLACEMENT_3D('',#391,#392,#393);
#391 = CARTESIAN_POINT('',(-23.114001,-13.97,1.51));
#392 = DIRECTION('',(-0.,0.,-1.));
#393 = DIRECTION('',(7.770589848645E-15,-1.,-0.));
#394 = FACE_BOUND('',#395,.T.);
#395 = EDGE_LOOP('',(#396));
#396 = ORIENTED_EDGE('',*,*,#397,.T.);
#397 = EDGE_CURVE('',#398,#398,#400,.T.);
#398 = VERTEX_POINT('',#399);
#399 = CARTESIAN_POINT('',(-28.448001,-1.7272,1.51));
#400 = CIRCLE('',#401,0.4572);
#401 = AXIS2_PLACEMENT_3D('',#402,#403,#404);
#402 = CARTESIAN_POINT('',(-28.448001,-1.27,1.51));
#403 = DIRECTION('',(-0.,0.,-1.));
#404 = DIRECTION('',(-0.,-1.,0.));
#405 = FACE_BOUND('',#406,.T.);
#406 = EDGE_LOOP('',(#407));
#407 = ORIENTED_EDGE('',*,*,#408,.T.);
#408 = EDGE_CURVE('',#409,#409,#411,.T.);
#409 = VERTEX_POINT('',#410);
#410 = CARTESIAN_POINT('',(-1.E-06,-14.4272,1.51));
#411 = CIRCLE('',#412,0.4572);
#412 = AXIS2_PLACEMENT_3D('',#413,#414,#415);
#413 = CARTESIAN_POINT('',(-1.000000000001E-06,-13.97,1.51));
#414 = DIRECTION('',(-0.,0.,-1.));
#415 = DIRECTION('',(2.187520018527E-18,-1.,-0.));
#416 = FACE_BOUND('',#417,.T.);
#417 = EDGE_LOOP('',(#418));
#418 = ORIENTED_EDGE('',*,*,#419,.T.);
#419 = EDGE_CURVE('',#420,#420,#422,.T.);
#420 = VERTEX_POINT('',#421);
#421 = CARTESIAN_POINT('',(23.113999,-14.4272,1.51));
#422 = CIRCLE('',#423,0.4572);
#423 = AXIS2_PLACEMENT_3D('',#424,#425,#426);
#424 = CARTESIAN_POINT('',(23.113999,-13.97,1.51));
#425 = DIRECTION('',(-0.,0.,-1.));
#426 = DIRECTION('',(-0.,-1.,0.));
#427 = FACE_BOUND('',#428,.T.);
#428 = EDGE_LOOP('',(#429));
#429 = ORIENTED_EDGE('',*,*,#430,.T.);
#430 = EDGE_CURVE('',#431,#431,#433,.T.);
#431 = VERTEX_POINT('',#432);
#432 = CARTESIAN_POINT('',(28.447999,-1.7272,1.51));
#433 = CIRCLE('',#434,0.4572);
#434 = AXIS2_PLACEMENT_3D('',#435,#436,#437);
#435 = CARTESIAN_POINT('',(28.447999,-1.27,1.51));
#436 = DIRECTION('',(-0.,0.,-1.));
#437 = DIRECTION('',(-0.,-1.,0.));
#438 = FACE_BOUND('',#439,.T.);
#439 = EDGE_LOOP('',(#440));
#440 = ORIENTED_EDGE('',*,*,#441,.T.);
#441 = EDGE_CURVE('',#442,#442,#444,.T.);
#442 = VERTEX_POINT('',#443);
#443 = CARTESIAN_POINT('',(-28.448001,13.5128,1.51));
#444 = CIRCLE('',#445,0.4572);
#445 = AXIS2_PLACEMENT_3D('',#446,#447,#448);
#446 = CARTESIAN_POINT('',(-28.448001,13.97,1.51));
#447 = DIRECTION('',(-0.,0.,-1.));
#448 = DIRECTION('',(-0.,-1.,0.));
#449 = FACE_BOUND('',#450,.T.);
#450 = EDGE_LOOP('',(#451));
#451 = ORIENTED_EDGE('',*,*,#452,.T.);
#452 = EDGE_CURVE('',#453,#453,#455,.T.);
#453 = VERTEX_POINT('',#454);
#454 = CARTESIAN_POINT('',(28.447999,13.5128,1.51));
#455 = CIRCLE('',#456,0.4572);
#456 = AXIS2_PLACEMENT_3D('',#457,#458,#459);
#457 = CARTESIAN_POINT('',(28.447999,13.97,1.51));
#458 = DIRECTION('',(-0.,0.,-1.));
#459 = DIRECTION('',(-0.,-1.,0.));
#460 = PLANE('',#461);
#461 = AXIS2_PLACEMENT_3D('',#462,#463,#464);
#462 = CARTESIAN_POINT('',(0.,0.,1.51));
#463 = DIRECTION('',(0.,0.,1.));
#464 = DIRECTION('',(1.,0.,-0.));
#465 = ADVANCED_FACE('',(#466),#477,.T.);
#466 = FACE_BOUND('',#467,.T.);
#467 = EDGE_LOOP('',(#468,#474,#475,#476));
#468 = ORIENTED_EDGE('',*,*,#469,.T.);
#469 = EDGE_CURVE('',#146,#309,#470,.T.);
#470 = LINE('',#471,#472);
#471 = CARTESIAN_POINT('',(-29.717998,13.97,0.));
#472 = VECTOR('',#473,1.);
#473 = DIRECTION('',(0.,0.,1.));
#474 = ORIENTED_EDGE('',*,*,#308,.T.);
#475 = ORIENTED_EDGE('',*,*,#81,.F.);
#476 = ORIENTED_EDGE('',*,*,#145,.F.);
#477 = CYLINDRICAL_SURFACE('',#478,1.270003797007);
#478 = AXIS2_PLACEMENT_3D('',#479,#480,#481);
#479 = CARTESIAN_POINT('',(-28.44799420299,13.969996203011,0.));
#480 = DIRECTION('',(0.,0.,-1.));
#481 = DIRECTION('',(-0.999999999996,2.989746013445E-06,0.));
#482 = ADVANCED_FACE('',(#483),#494,.T.);
#483 = FACE_BOUND('',#484,.T.);
#484 = EDGE_LOOP('',(#485,#486,#487,#493));
#485 = ORIENTED_EDGE('',*,*,#121,.T.);
#486 = ORIENTED_EDGE('',*,*,#376,.T.);
#487 = ORIENTED_EDGE('',*,*,#488,.F.);
#488 = EDGE_CURVE('',#206,#369,#489,.T.);
#489 = LINE('',#490,#491);
#490 = CARTESIAN_POINT('',(29.346024,-9.497926,0.));
#491 = VECTOR('',#492,1.);
#492 = DIRECTION('',(0.,0.,1.));
#493 = ORIENTED_EDGE('',*,*,#213,.F.);
#494 = CYLINDRICAL_SURFACE('',#495,1.269998839183);
#495 = AXIS2_PLACEMENT_3D('',#496,#497,#498);
#496 = CARTESIAN_POINT('',(28.448000160817,-8.599900256613,0.));
#497 = DIRECTION('',(0.,0.,-1.));
#498 = DIRECTION('',(1.,2.020580546853E-07,0.));
#499 = ADVANCED_FACE('',(#500),#511,.T.);
#500 = FACE_BOUND('',#501,.T.);
#501 = EDGE_LOOP('',(#502,#508,#509,#510));
#502 = ORIENTED_EDGE('',*,*,#503,.T.);
#503 = EDGE_CURVE('',#155,#318,#504,.T.);
#504 = LINE('',#505,#506);
#505 = CARTESIAN_POINT('',(-29.717998,-8.5999,0.));
#506 = VECTOR('',#507,1.);
#507 = DIRECTION('',(0.,0.,1.));
#508 = ORIENTED_EDGE('',*,*,#317,.T.);
#509 = ORIENTED_EDGE('',*,*,#469,.F.);
#510 = ORIENTED_EDGE('',*,*,#154,.F.);
#511 = PLANE('',#512);
#512 = AXIS2_PLACEMENT_3D('',#513,#514,#515);
#513 = CARTESIAN_POINT('',(-29.717998,-8.5999,0.));
#514 = DIRECTION('',(-1.,0.,0.));
#515 = DIRECTION('',(0.,1.,0.));
#516 = ADVANCED_FACE('',(#517),#528,.T.);
#517 = FACE_BOUND('',#518,.T.);
#518 = EDGE_LOOP('',(#519,#520,#521,#527));
#519 = ORIENTED_EDGE('',*,*,#488,.T.);
#520 = ORIENTED_EDGE('',*,*,#368,.T.);
#521 = ORIENTED_EDGE('',*,*,#522,.F.);
#522 = EDGE_CURVE('',#197,#360,#523,.T.);
#523 = LINE('',#524,#525);
#524 = CARTESIAN_POINT('',(23.975924,-14.868026,0.));
#525 = VECTOR('',#526,1.);
#526 = DIRECTION('',(0.,0.,1.));
#527 = ORIENTED_EDGE('',*,*,#205,.F.);
#528 = PLANE('',#529);
#529 = AXIS2_PLACEMENT_3D('',#530,#531,#532);
#530 = CARTESIAN_POINT('',(29.346024,-9.497926,0.));
#531 = DIRECTION('',(0.707106781187,-0.707106781187,0.));
#532 = DIRECTION('',(-0.707106781187,-0.707106781187,0.));
#533 = ADVANCED_FACE('',(#534),#545,.T.);
#534 = FACE_BOUND('',#535,.T.);
#535 = EDGE_LOOP('',(#536,#542,#543,#544));
#536 = ORIENTED_EDGE('',*,*,#537,.T.);
#537 = EDGE_CURVE('',#163,#326,#538,.T.);
#538 = LINE('',#539,#540);
#539 = CARTESIAN_POINT('',(-29.346023,-9.497926,0.));
#540 = VECTOR('',#541,1.);
#541 = DIRECTION('',(0.,0.,1.));
#542 = ORIENTED_EDGE('',*,*,#325,.T.);
#543 = ORIENTED_EDGE('',*,*,#503,.F.);
#544 = ORIENTED_EDGE('',*,*,#162,.F.);
#545 = CYLINDRICAL_SURFACE('',#546,1.269987626141);
#546 = AXIS2_PLACEMENT_3D('',#547,#548,#549);
#547 = CARTESIAN_POINT('',(-28.44801037386,-8.599904901217,0.));
#548 = DIRECTION('',(0.,0.,-1.));
#549 = DIRECTION('',(-0.707103445457,-0.707110116901,-0.));
#550 = ADVANCED_FACE('',(#551),#562,.T.);
#551 = FACE_BOUND('',#552,.T.);
#552 = EDGE_LOOP('',(#553,#554,#555,#561));
#553 = ORIENTED_EDGE('',*,*,#522,.T.);
#554 = ORIENTED_EDGE('',*,*,#359,.T.);
#555 = ORIENTED_EDGE('',*,*,#556,.F.);
#556 = EDGE_CURVE('',#189,#352,#557,.T.);
#557 = LINE('',#558,#559);
#558 = CARTESIAN_POINT('',(23.077906,-15.24,0.));
#559 = VECTOR('',#560,1.);
#560 = DIRECTION('',(0.,0.,1.));
#561 = ORIENTED_EDGE('',*,*,#196,.F.);
#562 = CYLINDRICAL_SURFACE('',#563,1.269955114379);
#563 = AXIS2_PLACEMENT_3D('',#564,#565,#566);
#564 = CARTESIAN_POINT('',(23.07791736815,-13.97004488567,0.));
#565 = DIRECTION('',(0.,0.,-1.));
#566 = DIRECTION('',(0.707116827739,-0.707096734491,0.));
#567 = ADVANCED_FACE('',(#568),#579,.T.);
#568 = FACE_BOUND('',#569,.T.);
#569 = EDGE_LOOP('',(#570,#576,#577,#578));
#570 = ORIENTED_EDGE('',*,*,#571,.T.);
#571 = EDGE_CURVE('',#172,#335,#572,.T.);
#572 = LINE('',#573,#574);
#573 = CARTESIAN_POINT('',(-23.975923,-14.868024,0.));
#574 = VECTOR('',#575,1.);
#575 = DIRECTION('',(0.,0.,1.));
#576 = ORIENTED_EDGE('',*,*,#334,.T.);
#577 = ORIENTED_EDGE('',*,*,#537,.F.);
#578 = ORIENTED_EDGE('',*,*,#171,.F.);
#579 = PLANE('',#580);
#580 = AXIS2_PLACEMENT_3D('',#581,#582,#583);
#581 = CARTESIAN_POINT('',(-23.975923,-14.868024,0.));
#582 = DIRECTION('',(-0.707106649512,-0.707106912861,0.));
#583 = DIRECTION('',(-0.707106912861,0.707106649512,0.));
#584 = ADVANCED_FACE('',(#585),#596,.T.);
#585 = FACE_BOUND('',#586,.T.);
#586 = EDGE_LOOP('',(#587,#588,#589,#595));
#587 = ORIENTED_EDGE('',*,*,#556,.T.);
#588 = ORIENTED_EDGE('',*,*,#351,.T.);
#589 = ORIENTED_EDGE('',*,*,#590,.F.);
#590 = EDGE_CURVE('',#180,#343,#591,.T.);
#591 = LINE('',#592,#593);
#592 = CARTESIAN_POINT('',(-23.077905,-15.24,0.));
#593 = VECTOR('',#594,1.);
#594 = DIRECTION('',(0.,0.,1.));
#595 = ORIENTED_EDGE('',*,*,#188,.F.);
#596 = PLANE('',#597);
#597 = AXIS2_PLACEMENT_3D('',#598,#599,#600);
#598 = CARTESIAN_POINT('',(23.077906,-15.24,0.));
#599 = DIRECTION('',(0.,-1.,0.));
#600 = DIRECTION('',(-1.,0.,0.));
#601 = ADVANCED_FACE('',(#602),#608,.T.);
#602 = FACE_BOUND('',#603,.T.);
#603 = EDGE_LOOP('',(#604,#605,#606,#607));
#604 = ORIENTED_EDGE('',*,*,#590,.T.);
#605 = ORIENTED_EDGE('',*,*,#342,.T.);
#606 = ORIENTED_EDGE('',*,*,#571,.F.);
#607 = ORIENTED_EDGE('',*,*,#179,.F.);
#608 = CYLINDRICAL_SURFACE('',#609,1.269945825794);
#609 = AXIS2_PLACEMENT_3D('',#610,#611,#612);
#610 = CARTESIAN_POINT('',(-23.07791821574,-13.97005417427,0.));
#611 = DIRECTION('',(0.,0.,-1.));
#612 = DIRECTION('',(1.04065450741E-05,-0.999999999946,0.));
#613 = ADVANCED_FACE('',(#614),#625,.F.);
#614 = FACE_BOUND('',#615,.T.);
#615 = EDGE_LOOP('',(#616,#617,#623,#624));
#616 = ORIENTED_EDGE('',*,*,#223,.T.);
#617 = ORIENTED_EDGE('',*,*,#618,.T.);
#618 = EDGE_CURVE('',#224,#387,#619,.T.);
#619 = LINE('',#620,#621);
#620 = CARTESIAN_POINT('',(-23.114001,-14.4272,-4.6E-02));
#621 = VECTOR('',#622,1.);
#622 = DIRECTION('',(0.,0.,1.));
#623 = ORIENTED_EDGE('',*,*,#386,.F.);
#624 = ORIENTED_EDGE('',*,*,#618,.F.);
#625 = CYLINDRICAL_SURFACE('',#626,0.4572);
#626 = AXIS2_PLACEMENT_3D('',#627,#628,#629);
#627 = CARTESIAN_POINT('',(-23.114001,-13.97,-4.6E-02));
#628 = DIRECTION('',(-0.,0.,-1.));
#629 = DIRECTION('',(7.770589848645E-15,-1.,-0.));
#630 = ADVANCED_FACE('',(#631),#642,.F.);
#631 = FACE_BOUND('',#632,.T.);
#632 = EDGE_LOOP('',(#633,#634,#640,#641));
#633 = ORIENTED_EDGE('',*,*,#234,.T.);
#634 = ORIENTED_EDGE('',*,*,#635,.T.);
#635 = EDGE_CURVE('',#235,#398,#636,.T.);
#636 = LINE('',#637,#638);
#637 = CARTESIAN_POINT('',(-28.448001,-1.7272,-4.6E-02));
#638 = VECTOR('',#639,1.);
#639 = DIRECTION('',(0.,0.,1.));
#640 = ORIENTED_EDGE('',*,*,#397,.F.);
#641 = ORIENTED_EDGE('',*,*,#635,.F.);
#642 = CYLINDRICAL_SURFACE('',#643,0.4572);
#643 = AXIS2_PLACEMENT_3D('',#644,#645,#646);
#644 = CARTESIAN_POINT('',(-28.448001,-1.27,-4.6E-02));
#645 = DIRECTION('',(-0.,-0.,-1.));
#646 = DIRECTION('',(-0.,-1.,0.));
#647 = ADVANCED_FACE('',(#648),#659,.F.);
#648 = FACE_BOUND('',#649,.T.);
#649 = EDGE_LOOP('',(#650,#651,#657,#658));
#650 = ORIENTED_EDGE('',*,*,#245,.T.);
#651 = ORIENTED_EDGE('',*,*,#652,.T.);
#652 = EDGE_CURVE('',#246,#409,#653,.T.);
#653 = LINE('',#654,#655);
#654 = CARTESIAN_POINT('',(-1.E-06,-14.4272,-4.6E-02));
#655 = VECTOR('',#656,1.);
#656 = DIRECTION('',(0.,0.,1.));
#657 = ORIENTED_EDGE('',*,*,#408,.F.);
#658 = ORIENTED_EDGE('',*,*,#652,.F.);
#659 = CYLINDRICAL_SURFACE('',#660,0.4572);
#660 = AXIS2_PLACEMENT_3D('',#661,#662,#663);
#661 = CARTESIAN_POINT('',(-1.000000000001E-06,-13.97,-4.6E-02));
#662 = DIRECTION('',(-0.,0.,-1.));
#663 = DIRECTION('',(2.187520018527E-18,-1.,-0.));
#664 = ADVANCED_FACE('',(#665),#676,.F.);
#665 = FACE_BOUND('',#666,.T.);
#666 = EDGE_LOOP('',(#667,#668,#674,#675));
#667 = ORIENTED_EDGE('',*,*,#256,.T.);
#668 = ORIENTED_EDGE('',*,*,#669,.T.);
#669 = EDGE_CURVE('',#257,#420,#670,.T.);
#670 = LINE('',#671,#672);
#671 = CARTESIAN_POINT('',(23.113999,-14.4272,-4.6E-02));
#672 = VECTOR('',#673,1.);
#673 = DIRECTION('',(0.,0.,1.));
#674 = ORIENTED_EDGE('',*,*,#419,.F.);
#675 = ORIENTED_EDGE('',*,*,#669,.F.);
#676 = CYLINDRICAL_SURFACE('',#677,0.4572);
#677 = AXIS2_PLACEMENT_3D('',#678,#679,#680);
#678 = CARTESIAN_POINT('',(23.113999,-13.97,-4.6E-02));
#679 = DIRECTION('',(-0.,-0.,-1.));
#680 = DIRECTION('',(-0.,-1.,0.));
#681 = ADVANCED_FACE('',(#682),#693,.F.);
#682 = FACE_BOUND('',#683,.T.);
#683 = EDGE_LOOP('',(#684,#685,#691,#692));
#684 = ORIENTED_EDGE('',*,*,#267,.T.);
#685 = ORIENTED_EDGE('',*,*,#686,.T.);
#686 = EDGE_CURVE('',#268,#431,#687,.T.);
#687 = LINE('',#688,#689);
#688 = CARTESIAN_POINT('',(28.447999,-1.7272,-4.6E-02));
#689 = VECTOR('',#690,1.);
#690 = DIRECTION('',(0.,0.,1.));
#691 = ORIENTED_EDGE('',*,*,#430,.F.);
#692 = ORIENTED_EDGE('',*,*,#686,.F.);
#693 = CYLINDRICAL_SURFACE('',#694,0.4572);
#694 = AXIS2_PLACEMENT_3D('',#695,#696,#697);
#695 = CARTESIAN_POINT('',(28.447999,-1.27,-4.6E-02));
#696 = DIRECTION('',(-0.,-0.,-1.));
#697 = DIRECTION('',(-0.,-1.,0.));
#698 = ADVANCED_FACE('',(#699),#710,.F.);
#699 = FACE_BOUND('',#700,.T.);
#700 = EDGE_LOOP('',(#701,#702,#708,#709));
#701 = ORIENTED_EDGE('',*,*,#278,.T.);
#702 = ORIENTED_EDGE('',*,*,#703,.T.);
#703 = EDGE_CURVE('',#279,#442,#704,.T.);
#704 = LINE('',#705,#706);
#705 = CARTESIAN_POINT('',(-28.448001,13.5128,-4.6E-02));
#706 = VECTOR('',#707,1.);
#707 = DIRECTION('',(0.,0.,1.));
#708 = ORIENTED_EDGE('',*,*,#441,.F.);
#709 = ORIENTED_EDGE('',*,*,#703,.F.);
#710 = CYLINDRICAL_SURFACE('',#711,0.4572);
#711 = AXIS2_PLACEMENT_3D('',#712,#713,#714);
#712 = CARTESIAN_POINT('',(-28.448001,13.97,-4.6E-02));
#713 = DIRECTION('',(-0.,-0.,-1.));
#714 = DIRECTION('',(-0.,-1.,0.));
#715 = ADVANCED_FACE('',(#716),#727,.F.);
#716 = FACE_BOUND('',#717,.T.);
#717 = EDGE_LOOP('',(#718,#719,#725,#726));
#718 = ORIENTED_EDGE('',*,*,#289,.T.);
#719 = ORIENTED_EDGE('',*,*,#720,.T.);
#720 = EDGE_CURVE('',#290,#453,#721,.T.);
#721 = LINE('',#722,#723);
#722 = CARTESIAN_POINT('',(28.447999,13.5128,-4.6E-02));
#723 = VECTOR('',#724,1.);
#724 = DIRECTION('',(0.,0.,1.));
#725 = ORIENTED_EDGE('',*,*,#452,.F.);
#726 = ORIENTED_EDGE('',*,*,#720,.F.);
#727 = CYLINDRICAL_SURFACE('',#728,0.4572);
#728 = AXIS2_PLACEMENT_3D('',#729,#730,#731);
#729 = CARTESIAN_POINT('',(28.447999,13.97,-4.6E-02));
#730 = DIRECTION('',(-0.,-0.,-1.));
#731 = DIRECTION('',(-0.,-1.,0.));
#732 = ( GEOMETRIC_REPRESENTATION_CONTEXT(3) 
GLOBAL_UNCERTAINTY_ASSIGNED_CONTEXT((#736)) GLOBAL_UNIT_ASSIGNED_CONTEXT
((#733,#734,#735)) REPRESENTATION_CONTEXT('Context #1',
  '3D Context with UNIT and UNCERTAINTY') );
#733 = ( LENGTH_UNIT() NAMED_UNIT(*) SI_UNIT(.MILLI.,.METRE.) );
#734 = ( NAMED_UNIT(*) PLANE_ANGLE_UNIT() SI_UNIT($,.RADIAN.) );
#735 = ( NAMED_UNIT(*) SI_UNIT($,.STERADIAN.) SOLID_ANGLE_UNIT() );
#736 = UNCERTAINTY_MEASURE_WITH_UNIT(LENGTH_MEASURE(1.E-07),#733,
  'distance_accuracy_value','confusion accuracy');
#737 = CONTEXT_DEPENDENT_SHAPE_REPRESENTATION(#738,#740);
#738 = ( REPRESENTATION_RELATIONSHIP('','',#32,#10) 
REPRESENTATION_RELATIONSHIP_WITH_TRANSFORMATION(#739) 
SHAPE_REPRESENTATION_RELATIONSHIP() );
#739 = ITEM_DEFINED_TRANSFORMATION('','',#11,#15);
#740 = PRODUCT_DEFINITION_SHAPE('Placement','Placement of an item',#741
  );
#741 = NEXT_ASSEMBLY_USAGE_OCCURRENCE('1','=>[0:1:1:2]','',#5,#27,$);
#742 = PRODUCT_RELATED_PRODUCT_CATEGORY('part',$,(#29));
#743 = MECHANICAL_DESIGN_GEOMETRIC_PRESENTATION_REPRESENTATION('',(#744)
  ,#732);
#744 = STYLED_ITEM('color',(#745),#33);
#745 = PRESENTATION_STYLE_ASSIGNMENT((#746));
#746 = SURFACE_STYLE_USAGE(.BOTH.,#747);
#747 = SURFACE_SIDE_STYLE('',(#748));
#748 = SURFACE_STYLE_FILL_AREA(#749);
#749 = FILL_AREA_STYLE('',(#750));
#750 = FILL_AREA_STYLE_COLOUR('',#751);
#751 = COLOUR_RGB('',0.313304153717,0.484529207832,0.410020903123);
ENDSEC;
END-ISO-10303-21;
